<svg xmlns="http://www.w3.org/2000/svg" xmlns:xlink="http://www.w3.org/1999/xlink" width="500" zoomAndPan="magnify" viewBox="0 0 375 374.999991" height="500" preserveAspectRatio="xMidYMid meet" version="1.0"><defs><g/><clipPath id="id1"><path d="M 57.445312 57.445312 L 317.695312 57.445312 L 317.695312 317.695312 L 57.445312 317.695312 Z M 57.445312 57.445312 " clip-rule="nonzero"/></clipPath><clipPath id="id2"><path d="M 57.445312 57.445312 L 317.695312 57.445312 L 317.695312 317.695312 L 57.445312 317.695312 Z M 57.445312 57.445312 " clip-rule="nonzero"/></clipPath><clipPath id="id3"><path d="M 187.570312 57.445312 C 115.703125 57.445312 57.445312 115.703125 57.445312 187.570312 C 57.445312 259.433594 115.703125 317.695312 187.570312 317.695312 C 259.433594 317.695312 317.695312 259.433594 317.695312 187.570312 C 317.695312 115.703125 259.433594 57.445312 187.570312 57.445312 " clip-rule="nonzero"/></clipPath><clipPath id="id4"><path d="M 89.332031 89.332031 L 285.832031 89.332031 L 285.832031 285.832031 L 89.332031 285.832031 Z M 89.332031 89.332031 " clip-rule="nonzero"/></clipPath><clipPath id="id5"><path d="M 89.332031 89.332031 L 285.832031 89.332031 L 285.832031 285.832031 L 89.332031 285.832031 Z M 89.332031 89.332031 " clip-rule="nonzero"/></clipPath><clipPath id="id6"><path d="M 187.582031 89.332031 C 133.320312 89.332031 89.332031 133.320312 89.332031 187.582031 C 89.332031 241.84375 133.320312 285.832031 187.582031 285.832031 C 241.84375 285.832031 285.832031 241.84375 285.832031 187.582031 C 285.832031 133.320312 241.84375 89.332031 187.582031 89.332031 " clip-rule="nonzero"/></clipPath><clipPath id="id7"><path d="M 146 102 L 215 102 L 215 144 L 146 144 Z M 146 102 " clip-rule="nonzero"/></clipPath><clipPath id="id8"><path d="M 141.140625 110.285156 L 208.984375 97.722656 L 215.269531 131.644531 L 147.421875 144.207031 Z M 141.140625 110.285156 " clip-rule="nonzero"/></clipPath><clipPath id="id9"><path d="M 141.140625 110.285156 L 208.984375 97.722656 L 215.269531 131.644531 L 147.421875 144.207031 Z M 141.140625 110.285156 " clip-rule="nonzero"/></clipPath><clipPath id="id10"><path d="M 141.335938 110.25 L 209.027344 97.714844 L 215.339844 131.804688 L 147.648438 144.339844 Z M 141.335938 110.25 " clip-rule="nonzero"/></clipPath><clipPath id="id11"><path d="M 141.335938 110.25 L 208.792969 97.757812 L 215.074219 131.671875 L 147.617188 144.164062 Z M 141.335938 110.25 " clip-rule="nonzero"/></clipPath></defs><rect x="-37.5" width="450" fill="#ffffff" y="-37.499999" height="449.999989" fill-opacity="1"/><rect x="-37.5" width="450" fill="#ffffff" y="-37.499999" height="449.999989" fill-opacity="1"/><rect x="-37.5" width="450" fill="#ffffff" y="-37.499999" height="449.999989" fill-opacity="1"/><g clip-path="url(#id1)"><path fill="#ffffff" d="M 187.570312 57.445312 C 115.703125 57.445312 57.445312 115.703125 57.445312 187.570312 C 57.445312 259.433594 115.703125 317.695312 187.570312 317.695312 C 259.433594 317.695312 317.695312 259.433594 317.695312 187.570312 C 317.695312 115.703125 259.433594 57.445312 187.570312 57.445312 " fill-opacity="1" fill-rule="nonzero"/></g><g clip-path="url(#id2)"><g clip-path="url(#id3)"><path stroke-linecap="butt" transform="matrix(0.750405, 0, 0, 0.750405, 57.444409, 57.444404)" fill="none" stroke-linejoin="miter" d="M 173.407471 0.00121038 C 77.636323 0.00121038 0.00120438 77.636329 0.00120438 173.407477 C 0.00120438 269.17342 77.636323 346.813744 173.407471 346.813744 C 269.173414 346.813744 346.813738 269.17342 346.813738 173.407477 C 346.813738 77.636329 269.173414 0.00121038 173.407471 0.00121038 " stroke="#000000" stroke-width="10" stroke-opacity="1" stroke-miterlimit="4"/></g></g><g clip-path="url(#id4)"><path fill="#ffffff" d="M 187.582031 89.332031 C 133.320312 89.332031 89.332031 133.320312 89.332031 187.582031 C 89.332031 241.84375 133.320312 285.832031 187.582031 285.832031 C 241.84375 285.832031 285.832031 241.84375 285.832031 187.582031 C 285.832031 133.320312 241.84375 89.332031 187.582031 89.332031 " fill-opacity="1" fill-rule="nonzero"/></g><g clip-path="url(#id5)"><g clip-path="url(#id6)"><path stroke-linecap="butt" transform="matrix(0.750671, 0, 0, 0.750671, 89.332931, 89.332926)" fill="none" stroke-linejoin="miter" d="M 130.881619 -0.00119211 C 58.597379 -0.00119211 -0.00119811 58.597385 -0.00119811 130.881625 C -0.00119811 203.165865 58.597379 261.764442 130.881619 261.764442 C 203.165859 261.764442 261.764436 203.165865 261.764436 130.881625 C 261.764436 58.597385 203.165859 -0.00119211 130.881619 -0.00119211 " stroke="#000000" stroke-width="10" stroke-opacity="1" stroke-miterlimit="4"/></g></g><g fill="#000000" fill-opacity="1"><g transform="translate(165.596665, 304.013297)"><g><path d="M 6.390625 -12.25 C 7.609375 -12.0625 8.503906 -11.742188 9.078125 -11.296875 C 9.660156 -10.847656 10.019531 -10.144531 10.15625 -9.1875 C 10.289062 -8.238281 10.222656 -6.867188 9.953125 -5.078125 C 9.578125 -2.585938 8.988281 -0.894531 8.1875 0 C 7.394531 0.882812 6.128906 1.195312 4.390625 0.9375 C 3.960938 0.875 2.75 0.597656 0.75 0.109375 L 2.65625 -12.515625 C 4.394531 -12.453125 5.640625 -12.363281 6.390625 -12.25 Z M 6.984375 -10.09375 C 6.003906 -10.25 5.382812 -10.320312 5.125 -10.3125 C 4.875 -10.3125 4.738281 -10.222656 4.71875 -10.046875 L 3.4375 -1.609375 C 3.414062 -1.492188 3.476562 -1.410156 3.625 -1.359375 C 3.78125 -1.316406 4.085938 -1.257812 4.546875 -1.1875 C 5.015625 -1.125 5.347656 -1.097656 5.546875 -1.109375 C 5.742188 -1.128906 5.9375 -1.191406 6.125 -1.296875 C 6.3125 -1.398438 6.457031 -1.632812 6.5625 -2 C 6.78125 -2.695312 7.003906 -3.796875 7.234375 -5.296875 C 7.703125 -8.398438 7.617188 -10 6.984375 -10.09375 Z M 6.984375 -10.09375 "/></g></g></g><g fill="#000000" fill-opacity="1"><g transform="translate(175.638971, 305.482413)"><g><path d="M 6.953125 -7.265625 C 7.410156 -7.234375 7.625 -7.015625 7.59375 -6.609375 C 7.550781 -6.054688 7.488281 -5.675781 7.40625 -5.46875 C 7.320312 -5.269531 7.140625 -5.179688 6.859375 -5.203125 L 3.53125 -5.4375 L 3.28125 -1.84375 L 7.203125 -1.5625 C 7.472656 -1.53125 7.65625 -1.460938 7.75 -1.359375 C 7.84375 -1.253906 7.882812 -1.109375 7.875 -0.921875 C 7.832031 -0.359375 7.753906 0.0195312 7.640625 0.21875 C 7.523438 0.425781 7.3125 0.515625 7 0.484375 L 1.03125 0.078125 L 0.78125 -0.21875 L 1.65625 -12.703125 L 7.671875 -12.28125 C 8.160156 -12.226562 8.394531 -12.023438 8.375 -11.671875 C 8.34375 -11.367188 8.304688 -11.128906 8.265625 -10.953125 C 8.234375 -10.785156 8.148438 -10.617188 8.015625 -10.453125 C 7.890625 -10.296875 7.710938 -10.226562 7.484375 -10.25 L 3.703125 -10.515625 L 3.6875 -7.5 Z M 6.953125 -7.265625 "/></g></g></g><g fill="#000000" fill-opacity="1"><g transform="translate(184.252406, 306.085011)"><g><path d="M 0.8125 -1.234375 C 0.5625 -1.535156 0.4375 -1.757812 0.4375 -1.90625 C 0.4375 -2.0625 0.570312 -2.269531 0.84375 -2.53125 C 1.113281 -2.800781 1.289062 -2.953125 1.375 -2.984375 C 1.457031 -3.015625 1.535156 -3.03125 1.609375 -3.03125 C 1.691406 -3.03125 1.820312 -2.976562 2 -2.875 C 2.84375 -2.21875 3.582031 -1.890625 4.21875 -1.890625 C 4.851562 -1.898438 5.265625 -2.050781 5.453125 -2.34375 C 5.648438 -2.632812 5.742188 -3.019531 5.734375 -3.5 C 5.734375 -3.976562 5.5625 -4.363281 5.21875 -4.65625 C 4.882812 -4.945312 4.328125 -5.300781 3.546875 -5.71875 C 2.765625 -6.132812 2.082031 -6.671875 1.5 -7.328125 C 0.925781 -7.992188 0.632812 -8.6875 0.625 -9.40625 C 0.625 -10.675781 0.953125 -11.601562 1.609375 -12.1875 C 2.265625 -12.78125 3.234375 -13.082031 4.515625 -13.09375 C 5.296875 -13.09375 6.0625 -12.910156 6.8125 -12.546875 C 7.207031 -12.378906 7.394531 -12.210938 7.375 -12.046875 C 7.351562 -11.984375 7.34375 -11.882812 7.34375 -11.75 C 7.132812 -11.132812 6.972656 -10.78125 6.859375 -10.6875 C 6.828125 -10.664062 6.75 -10.648438 6.625 -10.640625 C 6.507812 -10.640625 6.195312 -10.734375 5.6875 -10.921875 C 5.175781 -11.109375 4.738281 -11.195312 4.375 -11.1875 C 4.019531 -11.1875 3.722656 -11.0625 3.484375 -10.8125 C 3.253906 -10.5625 3.140625 -10.207031 3.140625 -9.75 C 3.148438 -9.300781 3.359375 -8.894531 3.765625 -8.53125 C 4.171875 -8.164062 4.796875 -7.785156 5.640625 -7.390625 C 6.535156 -6.929688 7.207031 -6.453125 7.65625 -5.953125 C 8.113281 -5.460938 8.347656 -4.796875 8.359375 -3.953125 C 8.367188 -1.171875 7.195312 0.222656 4.84375 0.234375 C 3.082031 0.242188 1.738281 -0.242188 0.8125 -1.234375 Z M 0.8125 -1.234375 "/></g></g></g><g fill="#000000" fill-opacity="1"><g transform="translate(193.587691, 306.027281)"><g><path d="M 3.3125 -13.40625 C 4.539062 -13.519531 5.488281 -13.425781 6.15625 -13.125 C 6.820312 -12.832031 7.335938 -12.238281 7.703125 -11.34375 C 8.066406 -10.457031 8.328125 -9.109375 8.484375 -7.296875 C 8.703125 -4.785156 8.53125 -3 7.96875 -1.9375 C 7.40625 -0.882812 6.25 -0.28125 4.5 -0.125 C 4.070312 -0.09375 2.828125 -0.0703125 0.765625 -0.0625 L -0.359375 -12.78125 C 1.328125 -13.132812 2.550781 -13.34375 3.3125 -13.40625 Z M 4.390625 -11.46875 C 3.398438 -11.375 2.78125 -11.296875 2.53125 -11.234375 C 2.289062 -11.171875 2.179688 -11.050781 2.203125 -10.875 L 2.953125 -2.375 C 2.960938 -2.257812 3.046875 -2.195312 3.203125 -2.1875 C 3.359375 -2.1875 3.671875 -2.207031 4.140625 -2.25 C 4.609375 -2.289062 4.9375 -2.335938 5.125 -2.390625 C 5.320312 -2.453125 5.492188 -2.554688 5.640625 -2.703125 C 5.785156 -2.847656 5.867188 -3.109375 5.890625 -3.484375 C 5.941406 -4.222656 5.898438 -5.347656 5.765625 -6.859375 C 5.484375 -9.984375 5.023438 -11.519531 4.390625 -11.46875 Z M 4.390625 -11.46875 "/></g></g></g><g fill="#000000" fill-opacity="1"><g transform="translate(203.692687, 305.079722)"><g><path d="M 5.03125 -8.703125 C 5.488281 -8.773438 5.75 -8.613281 5.8125 -8.21875 C 5.90625 -7.664062 5.9375 -7.28125 5.90625 -7.0625 C 5.875 -6.851562 5.71875 -6.726562 5.4375 -6.6875 L 2.140625 -6.125 L 2.75 -2.5625 L 6.640625 -3.21875 C 6.898438 -3.25 7.085938 -3.222656 7.203125 -3.140625 C 7.316406 -3.066406 7.390625 -2.941406 7.421875 -2.765625 C 7.515625 -2.203125 7.53125 -1.804688 7.46875 -1.578125 C 7.40625 -1.359375 7.222656 -1.222656 6.921875 -1.171875 L 1.015625 -0.171875 L 0.703125 -0.390625 L -1.390625 -12.71875 L 4.5625 -13.734375 C 5.039062 -13.804688 5.3125 -13.671875 5.375 -13.328125 C 5.40625 -13.023438 5.425781 -12.785156 5.4375 -12.609375 C 5.445312 -12.429688 5.410156 -12.25 5.328125 -12.0625 C 5.242188 -11.875 5.085938 -11.765625 4.859375 -11.734375 L 1.109375 -11.09375 L 1.796875 -8.15625 Z M 5.03125 -8.703125 "/></g></g></g><g fill="#000000" fill-opacity="1"><g transform="translate(212.084012, 303.588796)"><g/></g></g><g fill="#000000" fill-opacity="1"><g transform="translate(216.805598, 302.548226)"><g><path d="M 1.84375 -10.34375 L 1.6875 -11 C 1.625 -11.207031 1.5625 -11.328125 1.5 -11.359375 C 1.445312 -11.390625 1.382812 -11.410156 1.3125 -11.421875 C 1.1875 -11.441406 1.007812 -11.414062 0.78125 -11.34375 C 0.5625 -11.28125 0.382812 -11.226562 0.25 -11.1875 C 0.125 -11.144531 0.0234375 -11.109375 -0.046875 -11.078125 C -0.117188 -11.054688 -0.195312 -11.023438 -0.28125 -10.984375 C -0.363281 -10.941406 -0.421875 -10.910156 -0.453125 -10.890625 C -0.597656 -10.796875 -0.710938 -10.722656 -0.796875 -10.671875 L -1.578125 -10.4375 L -2.515625 -11.953125 C -2.046875 -12.503906 -1.203125 -12.957031 0.015625 -13.3125 C 0.765625 -13.53125 1.367188 -13.648438 1.828125 -13.671875 C 2.285156 -13.703125 2.671875 -13.597656 2.984375 -13.359375 C 3.296875 -13.128906 3.53125 -12.84375 3.6875 -12.5 C 3.84375 -12.164062 3.972656 -11.820312 4.078125 -11.46875 C 4.179688 -11.125 4.253906 -10.875 4.296875 -10.71875 C 4.347656 -10.570312 4.378906 -10.46875 4.390625 -10.40625 C 4.398438 -10.351562 4.414062 -10.234375 4.4375 -10.046875 C 4.46875 -9.859375 4.484375 -9.703125 4.484375 -9.578125 C 4.492188 -9.453125 4.484375 -9.257812 4.453125 -9 C 4.429688 -8.75 4.394531 -8.503906 4.34375 -8.265625 C 4.300781 -8.023438 4.238281 -7.722656 4.15625 -7.359375 C 4.070312 -6.992188 3.960938 -6.609375 3.828125 -6.203125 C 3.441406 -4.953125 3.09375 -3.925781 2.78125 -3.125 L 6.21875 -4.125 L 6.546875 -3.921875 L 7.09375 -2.046875 L 0.625 -0.1875 L 0.03125 -2.21875 C 1.019531 -5.050781 1.625 -6.925781 1.84375 -7.84375 C 2.0625 -8.769531 2.0625 -9.601562 1.84375 -10.34375 Z M 1.84375 -10.34375 "/></g></g></g><g fill="#000000" fill-opacity="1"><g transform="translate(224.964837, 300.186406)"><g><path d="M -1.671875 -12.828125 C -1.335938 -13.078125 -0.890625 -13.304688 -0.328125 -13.515625 C 0.617188 -13.867188 1.394531 -13.976562 2 -13.84375 C 2.613281 -13.71875 3.191406 -13.265625 3.734375 -12.484375 C 4.273438 -11.710938 4.863281 -10.484375 5.5 -8.796875 C 6.363281 -6.460938 6.707031 -4.753906 6.53125 -3.671875 C 6.351562 -2.585938 5.585938 -1.796875 4.234375 -1.296875 C 2.890625 -0.796875 1.789062 -0.894531 0.9375 -1.59375 C 0.09375 -2.289062 -0.722656 -3.710938 -1.515625 -5.859375 C -2.316406 -8.003906 -2.734375 -9.570312 -2.765625 -10.5625 C -2.796875 -11.550781 -2.429688 -12.304688 -1.671875 -12.828125 Z M -0.140625 -9.5 C -0.0664062 -9.144531 0.0234375 -8.796875 0.140625 -8.453125 C 0.253906 -8.109375 0.460938 -7.519531 0.765625 -6.6875 C 1.078125 -5.863281 1.359375 -5.1875 1.609375 -4.65625 C 1.867188 -4.125 2.070312 -3.785156 2.21875 -3.640625 C 2.363281 -3.492188 2.503906 -3.441406 2.640625 -3.484375 C 2.992188 -3.617188 3.257812 -3.722656 3.4375 -3.796875 C 3.613281 -3.878906 3.769531 -4.003906 3.90625 -4.171875 C 4.039062 -4.347656 4.117188 -4.507812 4.140625 -4.65625 C 4.160156 -4.8125 4.144531 -5.0625 4.09375 -5.40625 C 3.988281 -5.875 3.722656 -6.671875 3.296875 -7.796875 C 2.878906 -8.921875 2.546875 -9.75 2.296875 -10.28125 C 2.046875 -10.820312 1.84375 -11.164062 1.6875 -11.3125 C 1.53125 -11.46875 1.378906 -11.519531 1.234375 -11.46875 C 0.890625 -11.332031 0.625 -11.21875 0.4375 -11.125 C 0.257812 -11.039062 0.109375 -10.910156 -0.015625 -10.734375 C -0.140625 -10.566406 -0.210938 -10.40625 -0.234375 -10.25 C -0.253906 -10.101562 -0.222656 -9.851562 -0.140625 -9.5 Z M -0.140625 -9.5 "/></g></g></g><g fill="#000000" fill-opacity="1"><g transform="translate(233.628558, 296.923418)"><g><path d="M 0.28125 -10.515625 L 0 -11.125 C -0.0820312 -11.320312 -0.15625 -11.429688 -0.21875 -11.453125 C -0.28125 -11.484375 -0.347656 -11.5 -0.421875 -11.5 C -0.546875 -11.488281 -0.710938 -11.4375 -0.921875 -11.34375 C -1.140625 -11.25 -1.304688 -11.171875 -1.421875 -11.109375 C -1.546875 -11.046875 -1.644531 -10.992188 -1.71875 -10.953125 C -1.789062 -10.910156 -1.863281 -10.863281 -1.9375 -10.8125 C -2.007812 -10.769531 -2.054688 -10.738281 -2.078125 -10.71875 C -2.210938 -10.582031 -2.316406 -10.484375 -2.390625 -10.421875 L -3.140625 -10.078125 L -4.28125 -11.4375 C -3.90625 -12.0625 -3.144531 -12.632812 -2 -13.15625 C -1.289062 -13.488281 -0.707031 -13.703125 -0.25 -13.796875 C 0.207031 -13.890625 0.601562 -13.84375 0.9375 -13.65625 C 1.269531 -13.476562 1.539062 -13.234375 1.75 -12.921875 C 1.96875 -12.617188 2.148438 -12.300781 2.296875 -11.96875 C 2.453125 -11.644531 2.566406 -11.40625 2.640625 -11.25 C 2.710938 -11.101562 2.757812 -11.003906 2.78125 -10.953125 C 2.800781 -10.910156 2.835938 -10.796875 2.890625 -10.609375 C 2.953125 -10.429688 2.988281 -10.28125 3 -10.15625 C 3.007812 -10.03125 3.023438 -9.835938 3.046875 -9.578125 C 3.078125 -9.316406 3.082031 -9.0625 3.0625 -8.8125 C 3.050781 -8.570312 3.03125 -8.265625 3 -7.890625 C 2.976562 -7.523438 2.929688 -7.128906 2.859375 -6.703125 C 2.671875 -5.410156 2.476562 -4.347656 2.28125 -3.515625 L 5.53125 -5.015625 L 5.890625 -4.859375 L 6.703125 -3.09375 L 0.59375 -0.28125 L -0.296875 -2.203125 C 0.253906 -5.148438 0.566406 -7.09375 0.640625 -8.03125 C 0.722656 -8.976562 0.601562 -9.804688 0.28125 -10.515625 Z M 0.28125 -10.515625 "/></g></g></g><g fill="#000000" fill-opacity="1"><g transform="translate(241.289976, 293.356579)"><g><path d="M 5.9375 -3.25 L 0.875 -0.484375 L 0.515625 -0.59375 L -0.375 -2.203125 L 1.328125 -3.125 L -2.453125 -10.0625 L -3.640625 -9.0625 L -5.125 -10.5625 L -2.125 -13.40625 L -1.765625 -13.296875 L 0.953125 -8.875 L 3.46875 -4.296875 L 4.6875 -4.96875 L 5.046875 -4.875 Z M 5.9375 -3.25 "/></g></g></g><path fill="#ffffff" d="M 36.589844 269.582031 L 25.199219 207.355469 C 24.410156 203.058594 27.253906 198.941406 31.542969 198.15625 L 75.882812 190.039062 C 80.175781 189.253906 83.015625 185.132812 82.230469 180.839844 L 77.378906 154.34375 C 76.59375 150.046875 79.433594 145.929688 83.726562 145.144531 L 275.273438 110.082031 C 277.335938 109.707031 279.460938 110.164062 281.1875 111.355469 C 282.910156 112.546875 284.089844 114.375 284.46875 116.4375 L 289.320312 142.933594 C 289.695312 144.996094 290.875 146.824219 292.601562 148.015625 C 294.324219 149.210938 296.453125 149.667969 298.511719 149.289062 L 342.851562 141.175781 C 344.910156 140.796875 347.039062 141.253906 348.761719 142.445312 C 350.488281 143.640625 351.667969 145.46875 352.046875 147.53125 L 363.433594 209.757812 C 363.8125 211.820312 363.355469 213.949219 362.164062 215.675781 C 360.976562 217.402344 359.148438 218.582031 357.089844 218.960938 L 45.78125 275.941406 C 43.722656 276.316406 41.59375 275.859375 39.871094 274.667969 C 38.144531 273.476562 36.964844 271.648438 36.589844 269.582031 " fill-opacity="1" fill-rule="nonzero"/><g fill="#000000" fill-opacity="1"><g transform="translate(90.460231, 199.736938)"><g><path d="M 18.265625 -38.546875 C 23.378906 -39.484375 27.410156 -39.207031 30.359375 -37.71875 C 33.316406 -36.238281 35.140625 -33.601562 35.828125 -29.8125 C 36.171875 -27.9375 36.226562 -25.710938 36 -23.140625 C 35.59375 -18.972656 34.644531 -15.554688 33.15625 -12.890625 C 31.664062 -10.222656 29.457031 -8.070312 26.53125 -6.4375 C 23.613281 -4.8125 19.710938 -3.570312 14.828125 -2.71875 L 0.90625 -0.21875 C 0.1875 -0.0820312 -0.390625 -0.0976562 -0.828125 -0.265625 C -1.265625 -0.429688 -1.519531 -0.722656 -1.59375 -1.140625 C -1.632812 -1.335938 -1.625 -1.566406 -1.5625 -1.828125 C -1.507812 -2.148438 -1.398438 -2.398438 -1.234375 -2.578125 C -1.078125 -2.753906 -0.828125 -2.992188 -0.484375 -3.296875 C -0.00390625 -3.703125 0.359375 -4.117188 0.609375 -4.546875 C 0.867188 -4.984375 1.046875 -5.632812 1.140625 -6.5 L 3.34375 -29.625 C 3.40625 -30.09375 3.398438 -30.535156 3.328125 -30.953125 C 3.253906 -31.328125 3.128906 -31.628906 2.953125 -31.859375 C 2.785156 -32.097656 2.570312 -32.367188 2.3125 -32.671875 C 1.9375 -33.054688 1.722656 -33.390625 1.671875 -33.671875 C 1.648438 -33.773438 1.644531 -33.96875 1.65625 -34.25 C 1.726562 -34.707031 1.972656 -35.070312 2.390625 -35.34375 C 2.804688 -35.613281 3.5 -35.835938 4.46875 -36.015625 Z M 22.703125 -21.875 C 22.992188 -25.238281 22.972656 -27.835938 22.640625 -29.671875 C 22.304688 -31.484375 21.703125 -32.660156 20.828125 -33.203125 C 19.960938 -33.753906 18.828125 -33.898438 17.421875 -33.640625 L 16.296875 -33.4375 L 13.9375 -7.3125 L 15.171875 -7.546875 C 16.734375 -7.828125 17.988281 -8.394531 18.9375 -9.25 C 19.894531 -10.113281 20.671875 -11.523438 21.265625 -13.484375 C 21.859375 -15.441406 22.335938 -18.238281 22.703125 -21.875 Z M 22.703125 -21.875 "/></g></g></g><g fill="#000000" fill-opacity="1"><g transform="translate(132.502719, 192.041637)"><g><path d="M 18.546875 -39.390625 C 22.835938 -40.171875 26.378906 -39.765625 29.171875 -38.171875 C 31.960938 -36.585938 33.707031 -33.894531 34.40625 -30.09375 C 34.738281 -28.269531 34.820312 -26.273438 34.65625 -24.109375 C 34.332031 -20.097656 33.335938 -16.5625 31.671875 -13.5 C 30.003906 -10.445312 27.8125 -7.96875 25.09375 -6.0625 C 22.382812 -4.164062 19.289062 -2.898438 15.8125 -2.265625 C 11.550781 -1.484375 8.023438 -1.882812 5.234375 -3.46875 C 2.441406 -5.050781 0.695312 -7.753906 0 -11.578125 C -0.320312 -13.316406 -0.394531 -15.363281 -0.21875 -17.71875 C 0.0625 -21.6875 1.023438 -25.179688 2.671875 -28.203125 C 4.328125 -31.234375 6.503906 -33.691406 9.203125 -35.578125 C 11.910156 -37.472656 15.023438 -38.742188 18.546875 -39.390625 Z M 18.53125 -34.203125 C 17.507812 -34.015625 16.664062 -33.4375 16 -32.46875 C 15.332031 -31.5 14.765625 -30.015625 14.296875 -28.015625 C 13.835938 -26.015625 13.453125 -23.273438 13.140625 -19.796875 C 12.648438 -14.773438 12.566406 -11.363281 12.890625 -9.5625 C 13.085938 -8.488281 13.414062 -7.75 13.875 -7.34375 C 14.34375 -6.9375 14.984375 -6.8125 15.796875 -6.96875 C 16.828125 -7.15625 17.675781 -7.738281 18.34375 -8.71875 C 19.007812 -9.695312 19.566406 -11.179688 20.015625 -13.171875 C 20.460938 -15.160156 20.863281 -17.863281 21.21875 -21.28125 C 21.6875 -26.226562 21.75 -29.660156 21.40625 -31.578125 C 21.195312 -32.660156 20.859375 -33.40625 20.390625 -33.8125 C 19.929688 -34.21875 19.3125 -34.347656 18.53125 -34.203125 Z M 18.53125 -34.203125 "/></g></g></g><g fill="#000000" fill-opacity="1"><g transform="translate(172.550499, 184.711439)"><g><path d="M 33.625 -41.359375 C 35.007812 -41.609375 35.785156 -41.289062 35.953125 -40.40625 C 35.992188 -40.175781 36.003906 -40.007812 35.984375 -39.90625 C 35.960938 -39.53125 35.863281 -39.234375 35.6875 -39.015625 C 35.507812 -38.796875 35.253906 -38.523438 34.921875 -38.203125 C 34.472656 -37.816406 34.113281 -37.398438 33.84375 -36.953125 C 33.570312 -36.515625 33.382812 -35.882812 33.28125 -35.0625 L 31.109375 -11.1875 C 30.898438 -9.03125 30.429688 -7.460938 29.703125 -6.484375 C 28.984375 -5.515625 27.859375 -4.890625 26.328125 -4.609375 C 24.953125 -4.359375 23.738281 -4.550781 22.6875 -5.1875 C 21.644531 -5.820312 20.582031 -6.90625 19.5 -8.4375 L 8.796875 -23.28125 L 7.21875 -7.578125 C 7.195312 -7.097656 7.21875 -6.691406 7.28125 -6.359375 C 7.363281 -5.921875 7.507812 -5.566406 7.71875 -5.296875 C 7.925781 -5.023438 8.195312 -4.765625 8.53125 -4.515625 C 8.988281 -4.148438 9.25 -3.8125 9.3125 -3.5 C 9.34375 -3.289062 9.347656 -3.132812 9.328125 -3.03125 C 9.273438 -2.53125 9.03125 -2.140625 8.59375 -1.859375 C 8.15625 -1.585938 7.457031 -1.363281 6.5 -1.1875 L 0.921875 -0.171875 C -0.484375 0.0859375 -1.269531 -0.226562 -1.4375 -1.125 C -1.476562 -1.351562 -1.488281 -1.523438 -1.46875 -1.640625 C -1.425781 -1.992188 -1.316406 -2.285156 -1.140625 -2.515625 C -0.972656 -2.742188 -0.722656 -3.007812 -0.390625 -3.3125 C 0.0546875 -3.707031 0.414062 -4.125 0.6875 -4.5625 C 0.96875 -5 1.148438 -5.640625 1.234375 -6.484375 L 3.546875 -30.625 L 2.390625 -32.15625 C 1.941406 -32.769531 1.671875 -33.332031 1.578125 -33.84375 C 1.378906 -34.90625 1.960938 -35.5625 3.328125 -35.8125 L 10.90625 -37.203125 C 11.988281 -37.398438 12.851562 -37.300781 13.5 -36.90625 C 14.15625 -36.519531 14.921875 -35.753906 15.796875 -34.609375 L 26.015625 -20.984375 L 27.3125 -33.96875 C 27.3125 -34.457031 27.285156 -34.859375 27.234375 -35.171875 C 27.148438 -35.617188 27.003906 -35.96875 26.796875 -36.21875 C 26.597656 -36.476562 26.332031 -36.738281 26 -37 C 25.550781 -37.375 25.296875 -37.71875 25.234375 -38.03125 C 25.203125 -38.226562 25.191406 -38.378906 25.203125 -38.484375 C 25.253906 -38.992188 25.5 -39.382812 25.9375 -39.65625 C 26.382812 -39.9375 27.085938 -40.160156 28.046875 -40.328125 Z M 33.625 -41.359375 "/></g></g></g><g fill="#000000" fill-opacity="1"><g transform="translate(212.291402, 177.437411)"><g><path d="M 18.265625 -38.546875 C 23.378906 -39.484375 27.410156 -39.207031 30.359375 -37.71875 C 33.316406 -36.238281 35.140625 -33.601562 35.828125 -29.8125 C 36.171875 -27.9375 36.226562 -25.710938 36 -23.140625 C 35.59375 -18.972656 34.644531 -15.554688 33.15625 -12.890625 C 31.664062 -10.222656 29.457031 -8.070312 26.53125 -6.4375 C 23.613281 -4.8125 19.710938 -3.570312 14.828125 -2.71875 L 0.90625 -0.21875 C 0.1875 -0.0820312 -0.390625 -0.0976562 -0.828125 -0.265625 C -1.265625 -0.429688 -1.519531 -0.722656 -1.59375 -1.140625 C -1.632812 -1.335938 -1.625 -1.566406 -1.5625 -1.828125 C -1.507812 -2.148438 -1.398438 -2.398438 -1.234375 -2.578125 C -1.078125 -2.753906 -0.828125 -2.992188 -0.484375 -3.296875 C -0.00390625 -3.703125 0.359375 -4.117188 0.609375 -4.546875 C 0.867188 -4.984375 1.046875 -5.632812 1.140625 -6.5 L 3.34375 -29.625 C 3.40625 -30.09375 3.398438 -30.535156 3.328125 -30.953125 C 3.253906 -31.328125 3.128906 -31.628906 2.953125 -31.859375 C 2.785156 -32.097656 2.570312 -32.367188 2.3125 -32.671875 C 1.9375 -33.054688 1.722656 -33.390625 1.671875 -33.671875 C 1.648438 -33.773438 1.644531 -33.96875 1.65625 -34.25 C 1.726562 -34.707031 1.972656 -35.070312 2.390625 -35.34375 C 2.804688 -35.613281 3.5 -35.835938 4.46875 -36.015625 Z M 22.703125 -21.875 C 22.992188 -25.238281 22.972656 -27.835938 22.640625 -29.671875 C 22.304688 -31.484375 21.703125 -32.660156 20.828125 -33.203125 C 19.960938 -33.753906 18.828125 -33.898438 17.421875 -33.640625 L 16.296875 -33.4375 L 13.9375 -7.3125 L 15.171875 -7.546875 C 16.734375 -7.828125 17.988281 -8.394531 18.9375 -9.25 C 19.894531 -10.113281 20.671875 -11.523438 21.265625 -13.484375 C 21.859375 -15.441406 22.335938 -18.238281 22.703125 -21.875 Z M 22.703125 -21.875 "/></g></g></g><g fill="#000000" fill-opacity="1"><g transform="translate(254.333887, 169.742109)"><g><path d="M 27.15625 -40.171875 C 28.414062 -40.398438 29.445312 -40.304688 30.25 -39.890625 C 31.050781 -39.484375 31.539062 -38.800781 31.71875 -37.84375 C 31.800781 -37.363281 31.8125 -36.894531 31.75 -36.4375 L 31.3125 -31.421875 C 31.238281 -30.460938 31.003906 -29.757812 30.609375 -29.3125 C 30.222656 -28.875 29.601562 -28.578125 28.75 -28.421875 C 27.925781 -28.265625 27.25 -28.320312 26.71875 -28.59375 C 26.195312 -28.875 25.742188 -29.398438 25.359375 -30.171875 L 23.984375 -32.9375 C 23.710938 -33.519531 23.4375 -33.890625 23.15625 -34.046875 C 22.875 -34.210938 22.394531 -34.234375 21.71875 -34.109375 L 16.34375 -33.125 L 15.46875 -23.5625 L 17.703125 -23.96875 C 17.941406 -24.019531 18.234375 -24.25 18.578125 -24.65625 L 20.03125 -26.5 C 20.46875 -27.039062 20.851562 -27.445312 21.1875 -27.71875 C 21.53125 -27.988281 21.972656 -28.175781 22.515625 -28.28125 C 23.140625 -28.394531 23.675781 -28.320312 24.125 -28.0625 C 24.570312 -27.8125 24.84375 -27.429688 24.9375 -26.921875 C 24.957031 -26.773438 24.960938 -26.566406 24.953125 -26.296875 L 24.15625 -18.796875 C 24.082031 -18.003906 23.832031 -17.382812 23.40625 -16.9375 C 22.988281 -16.5 22.484375 -16.226562 21.890625 -16.125 C 20.941406 -15.945312 20.132812 -16.304688 19.46875 -17.203125 L 18.28125 -18.828125 C 17.945312 -19.296875 17.523438 -19.484375 17.015625 -19.390625 L 15.015625 -19.03125 L 13.984375 -7.625 L 18.484375 -8.453125 C 19.140625 -8.578125 19.691406 -8.8125 20.140625 -9.15625 C 20.585938 -9.5 21.039062 -10.050781 21.5 -10.8125 L 23.953125 -14.734375 C 24.390625 -15.421875 24.828125 -15.9375 25.265625 -16.28125 C 25.710938 -16.632812 26.296875 -16.878906 27.015625 -17.015625 C 27.765625 -17.148438 28.40625 -17.085938 28.9375 -16.828125 C 29.476562 -16.566406 29.8125 -16.097656 29.9375 -15.421875 C 29.988281 -15.140625 30 -14.804688 29.96875 -14.421875 L 29.4375 -8.96875 C 29.300781 -7.613281 28.921875 -6.613281 28.296875 -5.96875 C 27.671875 -5.320312 26.675781 -4.878906 25.3125 -4.640625 L 0.921875 -0.171875 C 0.203125 -0.0351562 -0.375 -0.0507812 -0.8125 -0.21875 C -1.25 -0.382812 -1.507812 -0.675781 -1.59375 -1.09375 C -1.625 -1.28125 -1.609375 -1.507812 -1.546875 -1.78125 C -1.472656 -2.175781 -1.300781 -2.503906 -1.03125 -2.765625 C -0.757812 -3.023438 -0.597656 -3.1875 -0.546875 -3.25 C -0.0546875 -3.675781 0.320312 -4.097656 0.59375 -4.515625 C 0.875 -4.941406 1.054688 -5.585938 1.140625 -6.453125 L 3.40625 -29.640625 C 3.457031 -30.097656 3.453125 -30.519531 3.390625 -30.90625 C 3.304688 -31.3125 3.179688 -31.640625 3.015625 -31.890625 C 2.847656 -32.140625 2.613281 -32.398438 2.3125 -32.671875 C 1.9375 -33.054688 1.722656 -33.390625 1.671875 -33.671875 C 1.648438 -33.773438 1.644531 -33.96875 1.65625 -34.25 C 1.726562 -34.707031 1.984375 -35.070312 2.421875 -35.34375 C 2.859375 -35.625 3.539062 -35.847656 4.46875 -36.015625 Z M 27.15625 -40.171875 "/></g></g></g><g fill="#000000" fill-opacity="1"><g transform="translate(38.215488, 252.759831)"><g><path d="M 18.265625 -38.546875 C 23.378906 -39.484375 27.410156 -39.207031 30.359375 -37.71875 C 33.316406 -36.238281 35.140625 -33.601562 35.828125 -29.8125 C 36.171875 -27.9375 36.226562 -25.710938 36 -23.140625 C 35.59375 -18.972656 34.644531 -15.554688 33.15625 -12.890625 C 31.664062 -10.222656 29.457031 -8.070312 26.53125 -6.4375 C 23.613281 -4.8125 19.710938 -3.570312 14.828125 -2.71875 L 0.90625 -0.21875 C 0.1875 -0.0820312 -0.390625 -0.0976562 -0.828125 -0.265625 C -1.265625 -0.429688 -1.519531 -0.722656 -1.59375 -1.140625 C -1.632812 -1.335938 -1.625 -1.566406 -1.5625 -1.828125 C -1.507812 -2.148438 -1.398438 -2.398438 -1.234375 -2.578125 C -1.078125 -2.753906 -0.828125 -2.992188 -0.484375 -3.296875 C -0.00390625 -3.703125 0.359375 -4.117188 0.609375 -4.546875 C 0.867188 -4.984375 1.046875 -5.632812 1.140625 -6.5 L 3.34375 -29.625 C 3.40625 -30.09375 3.398438 -30.535156 3.328125 -30.953125 C 3.253906 -31.328125 3.128906 -31.628906 2.953125 -31.859375 C 2.785156 -32.097656 2.570312 -32.367188 2.3125 -32.671875 C 1.9375 -33.054688 1.722656 -33.390625 1.671875 -33.671875 C 1.648438 -33.773438 1.644531 -33.96875 1.65625 -34.25 C 1.726562 -34.707031 1.972656 -35.070312 2.390625 -35.34375 C 2.804688 -35.613281 3.5 -35.835938 4.46875 -36.015625 Z M 22.703125 -21.875 C 22.992188 -25.238281 22.972656 -27.835938 22.640625 -29.671875 C 22.304688 -31.484375 21.703125 -32.660156 20.828125 -33.203125 C 19.960938 -33.753906 18.828125 -33.898438 17.421875 -33.640625 L 16.296875 -33.4375 L 13.9375 -7.3125 L 15.171875 -7.546875 C 16.734375 -7.828125 17.988281 -8.394531 18.9375 -9.25 C 19.894531 -10.113281 20.671875 -11.523438 21.265625 -13.484375 C 21.859375 -15.441406 22.335938 -18.238281 22.703125 -21.875 Z M 22.703125 -21.875 "/></g></g></g><g fill="#000000" fill-opacity="1"><g transform="translate(80.257976, 245.064529)"><g><path d="M 30.140625 -11.765625 C 30.085938 -11.285156 30.101562 -10.828125 30.1875 -10.390625 C 30.25 -10.023438 30.351562 -9.71875 30.5 -9.46875 C 30.65625 -9.226562 30.804688 -9.039062 30.953125 -8.90625 C 31.097656 -8.78125 31.195312 -8.6875 31.25 -8.625 C 31.65625 -8.351562 31.890625 -8.039062 31.953125 -7.6875 C 31.960938 -7.625 31.957031 -7.453125 31.9375 -7.171875 C 31.882812 -6.660156 31.644531 -6.269531 31.21875 -6 C 30.789062 -5.726562 30.101562 -5.507812 29.15625 -5.34375 L 17.03125 -3.109375 C 16.3125 -2.984375 15.734375 -3.003906 15.296875 -3.171875 C 14.867188 -3.335938 14.613281 -3.628906 14.53125 -4.046875 C 14.5 -4.234375 14.515625 -4.460938 14.578125 -4.734375 C 14.628906 -5.015625 14.734375 -5.25 14.890625 -5.4375 C 15.046875 -5.625 15.28125 -5.851562 15.59375 -6.125 C 16.082031 -6.53125 16.457031 -6.953125 16.71875 -7.390625 C 16.988281 -7.835938 17.164062 -8.507812 17.25 -9.40625 L 17.78125 -14.046875 L 9.8125 -12.578125 L 8.953125 -9.40625 C 8.609375 -8.039062 8.503906 -7 8.640625 -6.28125 C 8.710938 -5.875 8.835938 -5.554688 9.015625 -5.328125 C 9.203125 -5.097656 9.457031 -4.867188 9.78125 -4.640625 C 10.0625 -4.410156 10.257812 -4.207031 10.375 -4.03125 C 10.5 -3.863281 10.554688 -3.625 10.546875 -3.3125 C 10.503906 -2.769531 10.285156 -2.363281 9.890625 -2.09375 C 9.503906 -1.832031 8.851562 -1.617188 7.9375 -1.453125 L 0.3125 -0.0625 C -0.476562 0.0820312 -1.101562 0.046875 -1.5625 -0.171875 C -2.019531 -0.390625 -2.296875 -0.734375 -2.390625 -1.203125 C -2.484375 -1.742188 -2.363281 -2.210938 -2.03125 -2.609375 C -1.707031 -3.003906 -1.179688 -3.460938 -0.453125 -3.984375 C 0.460938 -4.679688 1.179688 -5.332031 1.703125 -5.9375 C 2.222656 -6.539062 2.628906 -7.328125 2.921875 -8.296875 L 8.578125 -28.84375 C 9.429688 -32.019531 10.679688 -34.441406 12.328125 -36.109375 C 13.984375 -37.773438 16.367188 -38.894531 19.484375 -39.46875 C 22.953125 -40.101562 25.769531 -39.882812 27.9375 -38.8125 C 30.113281 -37.75 31.429688 -35.957031 31.890625 -33.4375 C 32.085938 -32.375 32.117188 -31.25 31.984375 -30.0625 Z M 18.375 -19.4375 L 19.453125 -28.921875 C 19.503906 -29.359375 19.488281 -29.804688 19.40625 -30.265625 C 19.289062 -30.898438 19.023438 -31.34375 18.609375 -31.59375 C 18.191406 -31.851562 17.660156 -31.925781 17.015625 -31.8125 C 16.203125 -31.65625 15.546875 -31.285156 15.046875 -30.703125 C 14.554688 -30.128906 14.132812 -29.175781 13.78125 -27.84375 L 11.21875 -18.125 Z M 18.375 -19.4375 "/></g></g></g><g fill="#000000" fill-opacity="1"><g transform="translate(118.515633, 238.061989)"><g><path d="M 33.625 -41.359375 C 35.007812 -41.609375 35.785156 -41.289062 35.953125 -40.40625 C 35.992188 -40.175781 36.003906 -40.007812 35.984375 -39.90625 C 35.960938 -39.53125 35.863281 -39.234375 35.6875 -39.015625 C 35.507812 -38.796875 35.253906 -38.523438 34.921875 -38.203125 C 34.472656 -37.816406 34.113281 -37.398438 33.84375 -36.953125 C 33.570312 -36.515625 33.382812 -35.882812 33.28125 -35.0625 L 31.109375 -11.1875 C 30.898438 -9.03125 30.429688 -7.460938 29.703125 -6.484375 C 28.984375 -5.515625 27.859375 -4.890625 26.328125 -4.609375 C 24.953125 -4.359375 23.738281 -4.550781 22.6875 -5.1875 C 21.644531 -5.820312 20.582031 -6.90625 19.5 -8.4375 L 8.796875 -23.28125 L 7.21875 -7.578125 C 7.195312 -7.097656 7.21875 -6.691406 7.28125 -6.359375 C 7.363281 -5.921875 7.507812 -5.566406 7.71875 -5.296875 C 7.925781 -5.023438 8.195312 -4.765625 8.53125 -4.515625 C 8.988281 -4.148438 9.25 -3.8125 9.3125 -3.5 C 9.34375 -3.289062 9.347656 -3.132812 9.328125 -3.03125 C 9.273438 -2.53125 9.03125 -2.140625 8.59375 -1.859375 C 8.15625 -1.585938 7.457031 -1.363281 6.5 -1.1875 L 0.921875 -0.171875 C -0.484375 0.0859375 -1.269531 -0.226562 -1.4375 -1.125 C -1.476562 -1.351562 -1.488281 -1.523438 -1.46875 -1.640625 C -1.425781 -1.992188 -1.316406 -2.285156 -1.140625 -2.515625 C -0.972656 -2.742188 -0.722656 -3.007812 -0.390625 -3.3125 C 0.0546875 -3.707031 0.414062 -4.125 0.6875 -4.5625 C 0.96875 -5 1.148438 -5.640625 1.234375 -6.484375 L 3.546875 -30.625 L 2.390625 -32.15625 C 1.941406 -32.769531 1.671875 -33.332031 1.578125 -33.84375 C 1.378906 -34.90625 1.960938 -35.5625 3.328125 -35.8125 L 10.90625 -37.203125 C 11.988281 -37.398438 12.851562 -37.300781 13.5 -36.90625 C 14.15625 -36.519531 14.921875 -35.753906 15.796875 -34.609375 L 26.015625 -20.984375 L 27.3125 -33.96875 C 27.3125 -34.457031 27.285156 -34.859375 27.234375 -35.171875 C 27.148438 -35.617188 27.003906 -35.96875 26.796875 -36.21875 C 26.597656 -36.476562 26.332031 -36.738281 26 -37 C 25.550781 -37.375 25.296875 -37.71875 25.234375 -38.03125 C 25.203125 -38.226562 25.191406 -38.378906 25.203125 -38.484375 C 25.253906 -38.992188 25.5 -39.382812 25.9375 -39.65625 C 26.382812 -39.9375 27.085938 -40.160156 28.046875 -40.328125 Z M 33.625 -41.359375 "/></g></g></g><g fill="#000000" fill-opacity="1"><g transform="translate(158.256537, 230.787961)"><g><path d="M 16.484375 -38.21875 C 17.203125 -38.351562 17.773438 -38.34375 18.203125 -38.1875 C 18.628906 -38.03125 18.878906 -37.75 18.953125 -37.34375 C 18.984375 -37.175781 18.976562 -36.953125 18.9375 -36.671875 C 18.875 -36.410156 18.765625 -36.164062 18.609375 -35.9375 C 18.453125 -35.71875 18.304688 -35.550781 18.171875 -35.4375 C 18.046875 -35.320312 17.953125 -35.226562 17.890625 -35.15625 C 17.398438 -34.75 17.015625 -34.328125 16.734375 -33.890625 C 16.460938 -33.453125 16.28125 -32.816406 16.1875 -31.984375 L 14.03125 -8.8125 C 13.976562 -8.332031 13.988281 -7.894531 14.0625 -7.5 C 14.132812 -7.09375 14.253906 -6.757812 14.421875 -6.5 C 14.597656 -6.238281 14.832031 -5.976562 15.125 -5.71875 C 15.507812 -5.34375 15.726562 -5.015625 15.78125 -4.734375 C 15.789062 -4.671875 15.789062 -4.5 15.78125 -4.21875 C 15.71875 -3.707031 15.46875 -3.3125 15.03125 -3.03125 C 14.59375 -2.757812 13.894531 -2.539062 12.9375 -2.375 L 0.921875 -0.171875 C 0.203125 -0.0351562 -0.375 -0.0507812 -0.8125 -0.21875 C -1.25 -0.382812 -1.507812 -0.675781 -1.59375 -1.09375 C -1.625 -1.28125 -1.609375 -1.507812 -1.546875 -1.78125 C -1.472656 -2.175781 -1.300781 -2.503906 -1.03125 -2.765625 C -0.757812 -3.023438 -0.597656 -3.1875 -0.546875 -3.25 C -0.0546875 -3.675781 0.320312 -4.097656 0.59375 -4.515625 C 0.875 -4.941406 1.054688 -5.585938 1.140625 -6.453125 L 3.34375 -29.625 C 3.40625 -30.09375 3.398438 -30.535156 3.328125 -30.953125 C 3.253906 -31.328125 3.128906 -31.628906 2.953125 -31.859375 C 2.785156 -32.097656 2.570312 -32.367188 2.3125 -32.671875 C 1.9375 -33.054688 1.722656 -33.390625 1.671875 -33.671875 C 1.648438 -33.773438 1.644531 -33.96875 1.65625 -34.25 C 1.726562 -34.707031 1.972656 -35.070312 2.390625 -35.34375 C 2.804688 -35.613281 3.5 -35.835938 4.46875 -36.015625 Z M 16.484375 -38.21875 "/></g></g></g><g fill="#000000" fill-opacity="1"><g transform="translate(181.47717, 226.537742)"><g><path d="M 27.15625 -40.171875 C 28.414062 -40.398438 29.445312 -40.304688 30.25 -39.890625 C 31.050781 -39.484375 31.539062 -38.800781 31.71875 -37.84375 C 31.800781 -37.363281 31.8125 -36.894531 31.75 -36.4375 L 31.3125 -31.421875 C 31.238281 -30.460938 31.003906 -29.757812 30.609375 -29.3125 C 30.222656 -28.875 29.601562 -28.578125 28.75 -28.421875 C 27.925781 -28.265625 27.25 -28.320312 26.71875 -28.59375 C 26.195312 -28.875 25.742188 -29.398438 25.359375 -30.171875 L 23.984375 -32.9375 C 23.710938 -33.519531 23.4375 -33.890625 23.15625 -34.046875 C 22.875 -34.210938 22.394531 -34.234375 21.71875 -34.109375 L 16.34375 -33.125 L 15.46875 -23.5625 L 17.703125 -23.96875 C 17.941406 -24.019531 18.234375 -24.25 18.578125 -24.65625 L 20.03125 -26.5 C 20.46875 -27.039062 20.851562 -27.445312 21.1875 -27.71875 C 21.53125 -27.988281 21.972656 -28.175781 22.515625 -28.28125 C 23.140625 -28.394531 23.675781 -28.320312 24.125 -28.0625 C 24.570312 -27.8125 24.84375 -27.429688 24.9375 -26.921875 C 24.957031 -26.773438 24.960938 -26.566406 24.953125 -26.296875 L 24.15625 -18.796875 C 24.082031 -18.003906 23.832031 -17.382812 23.40625 -16.9375 C 22.988281 -16.5 22.484375 -16.226562 21.890625 -16.125 C 20.941406 -15.945312 20.132812 -16.304688 19.46875 -17.203125 L 18.28125 -18.828125 C 17.945312 -19.296875 17.523438 -19.484375 17.015625 -19.390625 L 15.015625 -19.03125 L 13.984375 -7.625 L 18.484375 -8.453125 C 19.140625 -8.578125 19.691406 -8.8125 20.140625 -9.15625 C 20.585938 -9.5 21.039062 -10.050781 21.5 -10.8125 L 23.953125 -14.734375 C 24.390625 -15.421875 24.828125 -15.9375 25.265625 -16.28125 C 25.710938 -16.632812 26.296875 -16.878906 27.015625 -17.015625 C 27.765625 -17.148438 28.40625 -17.085938 28.9375 -16.828125 C 29.476562 -16.566406 29.8125 -16.097656 29.9375 -15.421875 C 29.988281 -15.140625 30 -14.804688 29.96875 -14.421875 L 29.4375 -8.96875 C 29.300781 -7.613281 28.921875 -6.613281 28.296875 -5.96875 C 27.671875 -5.320312 26.675781 -4.878906 25.3125 -4.640625 L 0.921875 -0.171875 C 0.203125 -0.0351562 -0.375 -0.0507812 -0.8125 -0.21875 C -1.25 -0.382812 -1.507812 -0.675781 -1.59375 -1.09375 C -1.625 -1.28125 -1.609375 -1.507812 -1.546875 -1.78125 C -1.472656 -2.175781 -1.300781 -2.503906 -1.03125 -2.765625 C -0.757812 -3.023438 -0.597656 -3.1875 -0.546875 -3.25 C -0.0546875 -3.675781 0.320312 -4.097656 0.59375 -4.515625 C 0.875 -4.941406 1.054688 -5.585938 1.140625 -6.453125 L 3.40625 -29.640625 C 3.457031 -30.097656 3.453125 -30.519531 3.390625 -30.90625 C 3.304688 -31.3125 3.179688 -31.640625 3.015625 -31.890625 C 2.847656 -32.140625 2.613281 -32.398438 2.3125 -32.671875 C 1.9375 -33.054688 1.722656 -33.390625 1.671875 -33.671875 C 1.648438 -33.773438 1.644531 -33.96875 1.65625 -34.25 C 1.726562 -34.707031 1.984375 -35.070312 2.421875 -35.34375 C 2.859375 -35.625 3.539062 -35.847656 4.46875 -36.015625 Z M 27.15625 -40.171875 "/></g></g></g><g fill="#000000" fill-opacity="1"><g transform="translate(218.353873, 219.787966)"><g><path d="M 26.890625 -18.5625 C 27.835938 -18.738281 28.597656 -18.675781 29.171875 -18.375 C 29.742188 -18.070312 30.097656 -17.5625 30.234375 -16.84375 C 30.285156 -16.539062 30.296875 -16.191406 30.265625 -15.796875 L 29.671875 -9.5 C 29.492188 -7.945312 29.054688 -6.804688 28.359375 -6.078125 C 27.660156 -5.359375 26.523438 -4.851562 24.953125 -4.5625 L 0.921875 -0.171875 C 0.203125 -0.0351562 -0.375 -0.0507812 -0.8125 -0.21875 C -1.25 -0.382812 -1.507812 -0.675781 -1.59375 -1.09375 C -1.625 -1.28125 -1.609375 -1.507812 -1.546875 -1.78125 C -1.492188 -2.0625 -1.363281 -2.316406 -1.15625 -2.546875 C -0.957031 -2.785156 -0.734375 -3.019531 -0.484375 -3.25 C -0.00390625 -3.6875 0.367188 -4.113281 0.640625 -4.53125 C 0.921875 -4.957031 1.109375 -5.601562 1.203125 -6.46875 L 3.40625 -29.640625 C 3.457031 -30.097656 3.445312 -30.535156 3.375 -30.953125 C 3.300781 -31.328125 3.179688 -31.628906 3.015625 -31.859375 C 2.847656 -32.097656 2.632812 -32.375 2.375 -32.6875 C 1.988281 -33.0625 1.769531 -33.390625 1.71875 -33.671875 C 1.695312 -33.773438 1.695312 -33.972656 1.71875 -34.265625 C 1.78125 -34.722656 2.019531 -35.085938 2.4375 -35.359375 C 2.863281 -35.628906 3.554688 -35.851562 4.515625 -36.03125 L 16.53125 -38.234375 C 17.25 -38.359375 17.820312 -38.34375 18.25 -38.1875 C 18.675781 -38.039062 18.925781 -37.765625 19 -37.359375 C 19.03125 -37.191406 19.023438 -36.960938 18.984375 -36.671875 C 18.921875 -36.410156 18.8125 -36.171875 18.65625 -35.953125 C 18.507812 -35.734375 18.367188 -35.5625 18.234375 -35.4375 C 18.097656 -35.320312 18 -35.226562 17.9375 -35.15625 C 17.445312 -34.757812 17.0625 -34.34375 16.78125 -33.90625 C 16.507812 -33.46875 16.328125 -32.828125 16.234375 -31.984375 L 13.890625 -7.609375 L 17.0625 -8.1875 C 17.851562 -8.332031 18.5 -8.59375 19 -8.96875 C 19.507812 -9.351562 20.003906 -9.976562 20.484375 -10.84375 L 23.25 -15.671875 C 23.75 -16.535156 24.265625 -17.191406 24.796875 -17.640625 C 25.335938 -18.097656 26.035156 -18.40625 26.890625 -18.5625 Z M 26.890625 -18.5625 "/></g></g></g><g fill="#000000" fill-opacity="1"><g transform="translate(254.207646, 213.225424)"><g><path d="M 16.484375 -38.21875 C 17.203125 -38.351562 17.773438 -38.34375 18.203125 -38.1875 C 18.628906 -38.03125 18.878906 -37.75 18.953125 -37.34375 C 18.984375 -37.175781 18.976562 -36.953125 18.9375 -36.671875 C 18.875 -36.410156 18.765625 -36.164062 18.609375 -35.9375 C 18.453125 -35.71875 18.304688 -35.550781 18.171875 -35.4375 C 18.046875 -35.320312 17.953125 -35.226562 17.890625 -35.15625 C 17.398438 -34.75 17.015625 -34.328125 16.734375 -33.890625 C 16.460938 -33.453125 16.28125 -32.816406 16.1875 -31.984375 L 14.03125 -8.8125 C 13.976562 -8.332031 13.988281 -7.894531 14.0625 -7.5 C 14.132812 -7.09375 14.253906 -6.757812 14.421875 -6.5 C 14.597656 -6.238281 14.832031 -5.976562 15.125 -5.71875 C 15.507812 -5.34375 15.726562 -5.015625 15.78125 -4.734375 C 15.789062 -4.671875 15.789062 -4.5 15.78125 -4.21875 C 15.71875 -3.707031 15.46875 -3.3125 15.03125 -3.03125 C 14.59375 -2.757812 13.894531 -2.539062 12.9375 -2.375 L 0.921875 -0.171875 C 0.203125 -0.0351562 -0.375 -0.0507812 -0.8125 -0.21875 C -1.25 -0.382812 -1.507812 -0.675781 -1.59375 -1.09375 C -1.625 -1.28125 -1.609375 -1.507812 -1.546875 -1.78125 C -1.472656 -2.175781 -1.300781 -2.503906 -1.03125 -2.765625 C -0.757812 -3.023438 -0.597656 -3.1875 -0.546875 -3.25 C -0.0546875 -3.675781 0.320312 -4.097656 0.59375 -4.515625 C 0.875 -4.941406 1.054688 -5.585938 1.140625 -6.453125 L 3.34375 -29.625 C 3.40625 -30.09375 3.398438 -30.535156 3.328125 -30.953125 C 3.253906 -31.328125 3.128906 -31.628906 2.953125 -31.859375 C 2.785156 -32.097656 2.570312 -32.367188 2.3125 -32.671875 C 1.9375 -33.054688 1.722656 -33.390625 1.671875 -33.671875 C 1.648438 -33.773438 1.644531 -33.96875 1.65625 -34.25 C 1.726562 -34.707031 1.972656 -35.070312 2.390625 -35.34375 C 2.804688 -35.613281 3.5 -35.835938 4.46875 -36.015625 Z M 16.484375 -38.21875 "/></g></g></g><g fill="#000000" fill-opacity="1"><g transform="translate(277.428291, 208.975203)"><g><path d="M 34.734375 -41.5625 C 36.609375 -41.90625 37.6875 -41.3125 37.96875 -39.78125 C 38.050781 -39.300781 38.0625 -38.679688 38 -37.921875 L 37.515625 -33.578125 C 37.378906 -32.242188 37.082031 -31.269531 36.625 -30.65625 C 36.175781 -30.039062 35.441406 -29.640625 34.421875 -29.453125 C 33.566406 -29.296875 32.867188 -29.394531 32.328125 -29.75 C 31.785156 -30.113281 31.222656 -30.734375 30.640625 -31.609375 L 29.375 -33.5625 C 28.988281 -34.15625 28.617188 -34.539062 28.265625 -34.71875 C 27.921875 -34.90625 27.425781 -34.941406 26.78125 -34.828125 L 25.59375 -34.609375 L 23.28125 -10.5625 C 23.25 -10.09375 23.269531 -9.6875 23.34375 -9.34375 C 23.414062 -8.9375 23.535156 -8.601562 23.703125 -8.34375 C 23.878906 -8.09375 24.113281 -7.835938 24.40625 -7.578125 C 24.800781 -7.171875 25.023438 -6.8125 25.078125 -6.5 C 25.097656 -6.425781 25.09375 -6.253906 25.0625 -5.984375 C 24.976562 -5.492188 24.707031 -5.097656 24.25 -4.796875 C 23.789062 -4.503906 23.097656 -4.273438 22.171875 -4.109375 L 10.15625 -1.90625 C 9.4375 -1.78125 8.863281 -1.800781 8.4375 -1.96875 C 8.007812 -2.132812 7.753906 -2.4375 7.671875 -2.875 C 7.640625 -3.082031 7.648438 -3.300781 7.703125 -3.53125 C 7.785156 -3.851562 7.90625 -4.109375 8.0625 -4.296875 C 8.226562 -4.492188 8.472656 -4.738281 8.796875 -5.03125 C 9.253906 -5.4375 9.617188 -5.859375 9.890625 -6.296875 C 10.171875 -6.734375 10.359375 -7.367188 10.453125 -8.203125 L 12.703125 -32.25 L 11.53125 -32.03125 C 10.78125 -31.894531 10.1875 -31.660156 9.75 -31.328125 C 9.320312 -31.003906 8.894531 -30.472656 8.46875 -29.734375 L 7.140625 -27.3125 C 6.535156 -26.257812 5.910156 -25.429688 5.265625 -24.828125 C 4.617188 -24.234375 3.867188 -23.859375 3.015625 -23.703125 C 2.234375 -23.554688 1.582031 -23.648438 1.0625 -23.984375 C 0.539062 -24.316406 0.21875 -24.835938 0.09375 -25.546875 C 0.03125 -25.890625 0.0078125 -26.28125 0.03125 -26.71875 L 0.515625 -31.59375 C 0.609375 -32.601562 0.78125 -33.382812 1.03125 -33.9375 C 1.28125 -34.488281 1.695312 -34.929688 2.28125 -35.265625 C 2.875 -35.609375 3.753906 -35.890625 4.921875 -36.109375 Z M 34.734375 -41.5625 "/></g></g></g><g fill="#000000" fill-opacity="1"><g transform="translate(318.805877, 201.401602)"><g><path d="M 18.546875 -39.390625 C 22.835938 -40.171875 26.378906 -39.765625 29.171875 -38.171875 C 31.960938 -36.585938 33.707031 -33.894531 34.40625 -30.09375 C 34.738281 -28.269531 34.820312 -26.273438 34.65625 -24.109375 C 34.332031 -20.097656 33.335938 -16.5625 31.671875 -13.5 C 30.003906 -10.445312 27.8125 -7.96875 25.09375 -6.0625 C 22.382812 -4.164062 19.289062 -2.898438 15.8125 -2.265625 C 11.550781 -1.484375 8.023438 -1.882812 5.234375 -3.46875 C 2.441406 -5.050781 0.695312 -7.753906 0 -11.578125 C -0.320312 -13.316406 -0.394531 -15.363281 -0.21875 -17.71875 C 0.0625 -21.6875 1.023438 -25.179688 2.671875 -28.203125 C 4.328125 -31.234375 6.503906 -33.691406 9.203125 -35.578125 C 11.910156 -37.472656 15.023438 -38.742188 18.546875 -39.390625 Z M 18.53125 -34.203125 C 17.507812 -34.015625 16.664062 -33.4375 16 -32.46875 C 15.332031 -31.5 14.765625 -30.015625 14.296875 -28.015625 C 13.835938 -26.015625 13.453125 -23.273438 13.140625 -19.796875 C 12.648438 -14.773438 12.566406 -11.363281 12.890625 -9.5625 C 13.085938 -8.488281 13.414062 -7.75 13.875 -7.34375 C 14.34375 -6.9375 14.984375 -6.8125 15.796875 -6.96875 C 16.828125 -7.15625 17.675781 -7.738281 18.34375 -8.71875 C 19.007812 -9.695312 19.566406 -11.179688 20.015625 -13.171875 C 20.460938 -15.160156 20.863281 -17.863281 21.21875 -21.28125 C 21.6875 -26.226562 21.75 -29.660156 21.40625 -31.578125 C 21.195312 -32.660156 20.859375 -33.40625 20.390625 -33.8125 C 19.929688 -34.21875 19.3125 -34.347656 18.53125 -34.203125 Z M 18.53125 -34.203125 "/></g></g></g><path fill="#ffffff" d="M 108.671875 239.613281 L 282.652344 209.839844 C 286.730469 209.140625 290.605469 211.886719 291.304688 215.96875 L 293.835938 230.753906 C 294.535156 234.835938 291.792969 238.710938 287.710938 239.410156 L 113.734375 269.183594 C 109.652344 269.882812 105.777344 267.140625 105.082031 263.058594 L 102.550781 248.273438 C 101.851562 244.1875 104.59375 240.3125 108.671875 239.613281 " fill-opacity="1" fill-rule="nonzero"/><g fill="#000000" fill-opacity="1"><g transform="translate(105.093548, 263.05468)"><g><path d="M 6.5 -11.28125 C 7.09375 -11.375 7.429688 -11.160156 7.515625 -10.640625 C 7.640625 -9.929688 7.679688 -9.4375 7.640625 -9.15625 C 7.597656 -8.875 7.390625 -8.703125 7.015625 -8.640625 L 2.765625 -7.921875 L 3.546875 -3.3125 L 8.578125 -4.171875 C 8.921875 -4.222656 9.171875 -4.195312 9.328125 -4.09375 C 9.484375 -3.988281 9.582031 -3.8125 9.625 -3.5625 C 9.738281 -2.851562 9.753906 -2.351562 9.671875 -2.0625 C 9.585938 -1.78125 9.351562 -1.601562 8.96875 -1.53125 L 1.328125 -0.234375 L 0.90625 -0.53125 L -1.828125 -16.484375 L 5.875 -17.796875 C 6.507812 -17.878906 6.863281 -17.695312 6.9375 -17.25 C 6.976562 -16.863281 7.003906 -16.554688 7.015625 -16.328125 C 7.035156 -16.097656 6.988281 -15.859375 6.875 -15.609375 C 6.757812 -15.367188 6.554688 -15.222656 6.265625 -15.171875 L 1.421875 -14.34375 L 2.3125 -10.5625 Z M 6.5 -11.28125 "/></g></g></g><g fill="#000000" fill-opacity="1"><g transform="translate(115.565415, 261.262545)"><g><path d="M 8.859375 -2 L 7.171875 -11.828125 L 6.21875 -8.953125 L 4.015625 -8.578125 L 2.25 -10.9375 L 3.921875 -1.171875 C 3.960938 -0.910156 3.988281 -0.734375 4 -0.640625 C 3.96875 -0.421875 3.703125 -0.265625 3.203125 -0.171875 C 1.753906 0.0664062 0.984375 -0.0859375 0.890625 -0.640625 L -1.734375 -16 C -1.828125 -16.539062 -1.375 -16.894531 -0.375 -17.0625 C 0.625 -17.238281 1.265625 -17.078125 1.546875 -16.578125 L 4.71875 -11.359375 L 6.046875 -17.375 C 6.109375 -17.71875 6.210938 -17.945312 6.359375 -18.0625 C 6.503906 -18.1875 6.789062 -18.285156 7.21875 -18.359375 C 8.257812 -18.535156 8.832031 -18.347656 8.9375 -17.796875 L 10.40625 -11.390625 L 11.890625 -2.640625 C 11.972656 -2.210938 11.976562 -1.941406 11.90625 -1.828125 C 11.84375 -1.710938 11.585938 -1.613281 11.140625 -1.53125 C 10.703125 -1.457031 10.34375 -1.410156 10.0625 -1.390625 C 9.789062 -1.378906 9.53125 -1.414062 9.28125 -1.5 C 9.039062 -1.59375 8.898438 -1.757812 8.859375 -2 Z M 8.859375 -2 "/></g></g></g><g fill="#000000" fill-opacity="1"><g transform="translate(128.508897, 259.047423)"><g><path d="M 0.890625 -0.65625 L -1.828125 -16.484375 C -0.390625 -16.953125 0.878906 -17.28125 1.984375 -17.46875 C 3.953125 -17.800781 5.394531 -17.625 6.3125 -16.9375 C 7.226562 -16.257812 7.835938 -15.035156 8.140625 -13.265625 C 8.492188 -11.179688 8.210938 -9.671875 7.296875 -8.734375 C 6.703125 -8.117188 6.085938 -7.703125 5.453125 -7.484375 C 4.648438 -7.203125 3.710938 -6.96875 2.640625 -6.78125 L 3.609375 -1.125 C 3.648438 -0.851562 3.671875 -0.671875 3.671875 -0.578125 C 3.648438 -0.359375 3.382812 -0.207031 2.875 -0.125 C 1.644531 0.0820312 0.984375 -0.09375 0.890625 -0.65625 Z M 2.1875 -9.8125 C 2.238281 -9.800781 2.28125 -9.796875 2.3125 -9.796875 C 2.351562 -9.796875 2.519531 -9.820312 2.8125 -9.875 C 3.113281 -9.925781 3.382812 -9.976562 3.625 -10.03125 C 3.875 -10.09375 4.132812 -10.1875 4.40625 -10.3125 C 4.675781 -10.4375 4.851562 -10.597656 4.9375 -10.796875 C 5.125 -11.265625 5.148438 -11.878906 5.015625 -12.640625 C 4.890625 -13.410156 4.664062 -14.019531 4.34375 -14.46875 C 4.03125 -14.925781 3.75 -15.132812 3.5 -15.09375 C 2.457031 -14.914062 1.828125 -14.78125 1.609375 -14.6875 C 1.398438 -14.601562 1.316406 -14.4375 1.359375 -14.1875 L 2.0625 -10.078125 C 2.09375 -9.910156 2.132812 -9.820312 2.1875 -9.8125 Z M 2.1875 -9.8125 "/></g></g></g><g fill="#000000" fill-opacity="1"><g transform="translate(138.850671, 257.277552)"><g><path d="M 3.609375 -17.78125 C 4.609375 -17.945312 5.1875 -17.816406 5.34375 -17.390625 L 7.96875 -10.984375 L 10.984375 -2.375 C 11.035156 -2.238281 11.070312 -2.109375 11.09375 -1.984375 C 11.113281 -1.859375 11.09375 -1.742188 11.03125 -1.640625 C 10.976562 -1.546875 10.738281 -1.460938 10.3125 -1.390625 C 9.03125 -1.171875 8.296875 -1.335938 8.109375 -1.890625 L 6.59375 -6.203125 L 3.5625 -5.6875 L 3.65625 -1.109375 C 3.664062 -0.785156 3.644531 -0.566406 3.59375 -0.453125 C 3.539062 -0.335938 3.457031 -0.257812 3.34375 -0.21875 C 3.238281 -0.1875 3.050781 -0.148438 2.78125 -0.109375 L 2.1875 0 C 1.6875 0.0820312 1.363281 0.101562 1.21875 0.0625 C 0.875 0 0.671875 -0.0976562 0.609375 -0.234375 C 0.566406 -0.304688 0.539062 -0.375 0.53125 -0.4375 C 0.519531 -0.5 0.515625 -1.476562 0.515625 -3.375 C 0.515625 -5.269531 0.507812 -7.535156 0.5 -10.171875 C 0.5 -12.804688 0.5 -14.535156 0.5 -15.359375 C 0.5 -16.179688 0.503906 -16.640625 0.515625 -16.734375 C 0.503906 -17.078125 1.535156 -17.425781 3.609375 -17.78125 Z M 3.453125 -14.828125 L 3.53125 -8.390625 L 5.671875 -8.75 Z M 3.453125 -14.828125 "/></g></g></g><g fill="#000000" fill-opacity="1"><g transform="translate(150.536659, 255.277635)"><g><path d="M 0.875 -0.703125 L -1.75 -16.015625 C -1.832031 -16.546875 -1.347656 -16.898438 -0.296875 -17.078125 C -0.0859375 -17.109375 0.078125 -17.128906 0.203125 -17.140625 C 0.328125 -17.160156 0.488281 -17.125 0.6875 -17.03125 C 0.894531 -16.9375 1.09375 -16.785156 1.28125 -16.578125 L 6.75 -8.15625 L 5.046875 -17.203125 C 4.960938 -17.710938 5.4375 -18.054688 6.46875 -18.234375 C 6.914062 -18.304688 7.222656 -18.3125 7.390625 -18.25 C 7.566406 -18.1875 7.6875 -17.992188 7.75 -17.671875 L 9.234375 -11.203125 L 10.75 -2.328125 C 10.789062 -2.078125 10.8125 -1.898438 10.8125 -1.796875 C 10.789062 -1.578125 10.523438 -1.425781 10.015625 -1.34375 C 9.078125 -1.1875 8.460938 -1.363281 8.171875 -1.875 L 2.359375 -10.140625 L 3.921875 -1.171875 C 3.960938 -0.910156 3.988281 -0.734375 4 -0.640625 C 3.96875 -0.421875 3.703125 -0.265625 3.203125 -0.171875 C 1.753906 0.0664062 0.976562 -0.109375 0.875 -0.703125 Z M 0.875 -0.703125 "/></g></g></g><g fill="#000000" fill-opacity="1"><g transform="translate(162.309369, 253.262876)"><g><path d="M 3.609375 -17.78125 C 4.609375 -17.945312 5.1875 -17.816406 5.34375 -17.390625 L 7.96875 -10.984375 L 10.984375 -2.375 C 11.035156 -2.238281 11.070312 -2.109375 11.09375 -1.984375 C 11.113281 -1.859375 11.09375 -1.742188 11.03125 -1.640625 C 10.976562 -1.546875 10.738281 -1.460938 10.3125 -1.390625 C 9.03125 -1.171875 8.296875 -1.335938 8.109375 -1.890625 L 6.59375 -6.203125 L 3.5625 -5.6875 L 3.65625 -1.109375 C 3.664062 -0.785156 3.644531 -0.566406 3.59375 -0.453125 C 3.539062 -0.335938 3.457031 -0.257812 3.34375 -0.21875 C 3.238281 -0.1875 3.050781 -0.148438 2.78125 -0.109375 L 2.1875 0 C 1.6875 0.0820312 1.363281 0.101562 1.21875 0.0625 C 0.875 0 0.671875 -0.0976562 0.609375 -0.234375 C 0.566406 -0.304688 0.539062 -0.375 0.53125 -0.4375 C 0.519531 -0.5 0.515625 -1.476562 0.515625 -3.375 C 0.515625 -5.269531 0.507812 -7.535156 0.5 -10.171875 C 0.5 -12.804688 0.5 -14.535156 0.5 -15.359375 C 0.5 -16.179688 0.503906 -16.640625 0.515625 -16.734375 C 0.503906 -17.078125 1.535156 -17.425781 3.609375 -17.78125 Z M 3.453125 -14.828125 L 3.53125 -8.390625 L 5.671875 -8.75 Z M 3.453125 -14.828125 "/></g></g></g><g fill="#000000" fill-opacity="1"><g transform="translate(173.995357, 251.262959)"><g><path d="M 2.890625 -17.625 C 4.453125 -17.894531 5.675781 -17.875 6.5625 -17.5625 C 7.445312 -17.257812 8.171875 -16.550781 8.734375 -15.4375 C 9.296875 -14.320312 9.773438 -12.601562 10.171875 -10.28125 C 10.722656 -7.082031 10.691406 -4.769531 10.078125 -3.34375 C 9.460938 -1.914062 8.035156 -1.007812 5.796875 -0.625 C 5.234375 -0.53125 3.625 -0.378906 0.96875 -0.171875 L -1.8125 -16.453125 C 0.34375 -17.066406 1.910156 -17.457031 2.890625 -17.625 Z M 4.46875 -15.25 C 3.207031 -15.039062 2.421875 -14.878906 2.109375 -14.765625 C 1.804688 -14.660156 1.671875 -14.488281 1.703125 -14.25 L 3.5625 -3.375 C 3.59375 -3.21875 3.707031 -3.140625 3.90625 -3.140625 C 4.113281 -3.148438 4.515625 -3.203125 5.109375 -3.296875 C 5.710938 -3.398438 6.128906 -3.503906 6.359375 -3.609375 C 6.597656 -3.722656 6.804688 -3.878906 6.984375 -4.078125 C 7.160156 -4.285156 7.253906 -4.632812 7.265625 -5.125 C 7.234375 -6.070312 7.054688 -7.515625 6.734375 -9.453125 C 6.046875 -13.460938 5.289062 -15.394531 4.46875 -15.25 Z M 4.46875 -15.25 "/></g></g></g><g fill="#000000" fill-opacity="1"><g transform="translate(186.375139, 249.144307)"><g><path d="M 3.609375 -17.78125 C 4.609375 -17.945312 5.1875 -17.816406 5.34375 -17.390625 L 7.96875 -10.984375 L 10.984375 -2.375 C 11.035156 -2.238281 11.070312 -2.109375 11.09375 -1.984375 C 11.113281 -1.859375 11.09375 -1.742188 11.03125 -1.640625 C 10.976562 -1.546875 10.738281 -1.460938 10.3125 -1.390625 C 9.03125 -1.171875 8.296875 -1.335938 8.109375 -1.890625 L 6.59375 -6.203125 L 3.5625 -5.6875 L 3.65625 -1.109375 C 3.664062 -0.785156 3.644531 -0.566406 3.59375 -0.453125 C 3.539062 -0.335938 3.457031 -0.257812 3.34375 -0.21875 C 3.238281 -0.1875 3.050781 -0.148438 2.78125 -0.109375 L 2.1875 0 C 1.6875 0.0820312 1.363281 0.101562 1.21875 0.0625 C 0.875 0 0.671875 -0.0976562 0.609375 -0.234375 C 0.566406 -0.304688 0.539062 -0.375 0.53125 -0.4375 C 0.519531 -0.5 0.515625 -1.476562 0.515625 -3.375 C 0.515625 -5.269531 0.507812 -7.535156 0.5 -10.171875 C 0.5 -12.804688 0.5 -14.535156 0.5 -15.359375 C 0.5 -16.179688 0.503906 -16.640625 0.515625 -16.734375 C 0.503906 -17.078125 1.535156 -17.425781 3.609375 -17.78125 Z M 3.453125 -14.828125 L 3.53125 -8.390625 L 5.671875 -8.75 Z M 3.453125 -14.828125 "/></g></g></g><g fill="#000000" fill-opacity="1"><g transform="translate(198.061128, 247.14439)"><g><path d="M 0.78125 -1.765625 C 0.40625 -2.078125 0.195312 -2.328125 0.15625 -2.515625 C 0.125 -2.710938 0.25 -3.015625 0.53125 -3.421875 C 0.820312 -3.835938 1.015625 -4.0625 1.109375 -4.09375 C 1.210938 -4.132812 1.316406 -4.160156 1.421875 -4.171875 C 1.523438 -4.191406 1.707031 -4.164062 1.96875 -4.09375 C 3.175781 -3.4375 4.179688 -3.175781 4.984375 -3.3125 C 5.796875 -3.445312 6.289062 -3.722656 6.46875 -4.140625 C 6.65625 -4.554688 6.695312 -5.066406 6.59375 -5.671875 C 6.488281 -6.273438 6.1875 -6.726562 5.6875 -7.03125 C 5.1875 -7.34375 4.394531 -7.679688 3.3125 -8.046875 C 2.238281 -8.410156 1.257812 -8.953125 0.375 -9.671875 C -0.507812 -10.398438 -1.03125 -11.222656 -1.1875 -12.140625 C -1.46875 -13.753906 -1.242188 -15.003906 -0.515625 -15.890625 C 0.203125 -16.773438 1.378906 -17.359375 3.015625 -17.640625 C 4.003906 -17.804688 5.015625 -17.738281 6.046875 -17.4375 C 6.597656 -17.320312 6.875 -17.15625 6.875 -16.9375 C 6.875 -16.851562 6.882812 -16.722656 6.90625 -16.546875 C 6.757812 -15.710938 6.625 -15.222656 6.5 -15.078125 C 6.46875 -15.046875 6.375 -15.015625 6.21875 -14.984375 C 6.0625 -14.960938 5.640625 -15.015625 4.953125 -15.140625 C 4.265625 -15.273438 3.691406 -15.300781 3.234375 -15.21875 C 2.773438 -15.144531 2.421875 -14.921875 2.171875 -14.546875 C 1.921875 -14.179688 1.84375 -13.707031 1.9375 -13.125 C 2.039062 -12.539062 2.394531 -12.0625 3 -11.6875 C 3.601562 -11.3125 4.488281 -10.960938 5.65625 -10.640625 C 6.90625 -10.234375 7.867188 -9.757812 8.546875 -9.21875 C 9.222656 -8.6875 9.648438 -7.882812 9.828125 -6.8125 C 10.441406 -3.25 9.242188 -1.210938 6.234375 -0.703125 C 3.992188 -0.316406 2.175781 -0.671875 0.78125 -1.765625 Z M 0.78125 -1.765625 "/></g></g></g><g fill="#000000" fill-opacity="1"><g transform="translate(209.378539, 245.207551)"><g/></g></g><g fill="#000000" fill-opacity="1"><g transform="translate(215.145646, 244.220579)"><g><path d="M 9.015625 -4.1875 C 9.378906 -4.238281 9.597656 -4.03125 9.671875 -3.5625 C 9.753906 -3.101562 9.8125 -2.757812 9.84375 -2.53125 C 9.863281 -2 9.679688 -1.664062 9.296875 -1.53125 C 8.035156 -1.101562 7.097656 -0.835938 6.484375 -0.734375 C 4.328125 -0.367188 2.738281 -0.722656 1.71875 -1.796875 C 0.695312 -2.878906 -0.0820312 -5.003906 -0.625 -8.171875 C -1.019531 -10.484375 -1.144531 -12.28125 -1 -13.5625 C -0.851562 -14.851562 -0.425781 -15.804688 0.28125 -16.421875 C 0.988281 -17.046875 2.125 -17.488281 3.6875 -17.75 C 5.257812 -18.019531 6.453125 -17.972656 7.265625 -17.609375 C 7.421875 -17.546875 7.507812 -17.441406 7.53125 -17.296875 C 7.5625 -17.148438 7.539062 -16.863281 7.46875 -16.4375 C 7.394531 -16.019531 7.3125 -15.71875 7.21875 -15.53125 C 7.125 -15.34375 7.015625 -15.238281 6.890625 -15.21875 C 6.765625 -15.195312 6.660156 -15.1875 6.578125 -15.1875 C 5.453125 -15.21875 4.492188 -15.164062 3.703125 -15.03125 C 2.921875 -14.894531 2.484375 -14.367188 2.390625 -13.453125 C 2.296875 -12.546875 2.414062 -11.117188 2.75 -9.171875 C 3.082031 -7.234375 3.363281 -5.890625 3.59375 -5.140625 C 3.832031 -4.390625 4.113281 -3.882812 4.4375 -3.625 C 4.757812 -3.375 5.21875 -3.300781 5.8125 -3.40625 C 6.414062 -3.507812 7.09375 -3.660156 7.84375 -3.859375 C 8.59375 -4.066406 8.984375 -4.175781 9.015625 -4.1875 Z M 9.015625 -4.1875 "/></g></g></g><g fill="#000000" fill-opacity="1"><g transform="translate(225.942718, 242.37279)"><g><path d="M 3.609375 -17.78125 C 4.609375 -17.945312 5.1875 -17.816406 5.34375 -17.390625 L 7.96875 -10.984375 L 10.984375 -2.375 C 11.035156 -2.238281 11.070312 -2.109375 11.09375 -1.984375 C 11.113281 -1.859375 11.09375 -1.742188 11.03125 -1.640625 C 10.976562 -1.546875 10.738281 -1.460938 10.3125 -1.390625 C 9.03125 -1.171875 8.296875 -1.335938 8.109375 -1.890625 L 6.59375 -6.203125 L 3.5625 -5.6875 L 3.65625 -1.109375 C 3.664062 -0.785156 3.644531 -0.566406 3.59375 -0.453125 C 3.539062 -0.335938 3.457031 -0.257812 3.34375 -0.21875 C 3.238281 -0.1875 3.050781 -0.148438 2.78125 -0.109375 L 2.1875 0 C 1.6875 0.0820312 1.363281 0.101562 1.21875 0.0625 C 0.875 0 0.671875 -0.0976562 0.609375 -0.234375 C 0.566406 -0.304688 0.539062 -0.375 0.53125 -0.4375 C 0.519531 -0.5 0.515625 -1.476562 0.515625 -3.375 C 0.515625 -5.269531 0.507812 -7.535156 0.5 -10.171875 C 0.5 -12.804688 0.5 -14.535156 0.5 -15.359375 C 0.5 -16.179688 0.503906 -16.640625 0.515625 -16.734375 C 0.503906 -17.078125 1.535156 -17.425781 3.609375 -17.78125 Z M 3.453125 -14.828125 L 3.53125 -8.390625 L 5.671875 -8.75 Z M 3.453125 -14.828125 "/></g></g></g><g fill="#000000" fill-opacity="1"><g transform="translate(237.628706, 240.372872)"><g><path d="M 0.78125 -1.765625 C 0.40625 -2.078125 0.195312 -2.328125 0.15625 -2.515625 C 0.125 -2.710938 0.25 -3.015625 0.53125 -3.421875 C 0.820312 -3.835938 1.015625 -4.0625 1.109375 -4.09375 C 1.210938 -4.132812 1.316406 -4.160156 1.421875 -4.171875 C 1.523438 -4.191406 1.707031 -4.164062 1.96875 -4.09375 C 3.175781 -3.4375 4.179688 -3.175781 4.984375 -3.3125 C 5.796875 -3.445312 6.289062 -3.722656 6.46875 -4.140625 C 6.65625 -4.554688 6.695312 -5.066406 6.59375 -5.671875 C 6.488281 -6.273438 6.1875 -6.726562 5.6875 -7.03125 C 5.1875 -7.34375 4.394531 -7.679688 3.3125 -8.046875 C 2.238281 -8.410156 1.257812 -8.953125 0.375 -9.671875 C -0.507812 -10.398438 -1.03125 -11.222656 -1.1875 -12.140625 C -1.46875 -13.753906 -1.242188 -15.003906 -0.515625 -15.890625 C 0.203125 -16.773438 1.378906 -17.359375 3.015625 -17.640625 C 4.003906 -17.804688 5.015625 -17.738281 6.046875 -17.4375 C 6.597656 -17.320312 6.875 -17.15625 6.875 -16.9375 C 6.875 -16.851562 6.882812 -16.722656 6.90625 -16.546875 C 6.757812 -15.710938 6.625 -15.222656 6.5 -15.078125 C 6.46875 -15.046875 6.375 -15.015625 6.21875 -14.984375 C 6.0625 -14.960938 5.640625 -15.015625 4.953125 -15.140625 C 4.265625 -15.273438 3.691406 -15.300781 3.234375 -15.21875 C 2.773438 -15.144531 2.421875 -14.921875 2.171875 -14.546875 C 1.921875 -14.179688 1.84375 -13.707031 1.9375 -13.125 C 2.039062 -12.539062 2.394531 -12.0625 3 -11.6875 C 3.601562 -11.3125 4.488281 -10.960938 5.65625 -10.640625 C 6.90625 -10.234375 7.867188 -9.757812 8.546875 -9.21875 C 9.222656 -8.6875 9.648438 -7.882812 9.828125 -6.8125 C 10.441406 -3.25 9.242188 -1.210938 6.234375 -0.703125 C 3.992188 -0.316406 2.175781 -0.671875 0.78125 -1.765625 Z M 0.78125 -1.765625 "/></g></g></g><g fill="#000000" fill-opacity="1"><g transform="translate(248.946117, 238.436033)"><g><path d="M 6.5 -11.28125 C 7.09375 -11.375 7.429688 -11.160156 7.515625 -10.640625 C 7.640625 -9.929688 7.679688 -9.4375 7.640625 -9.15625 C 7.597656 -8.875 7.390625 -8.703125 7.015625 -8.640625 L 2.765625 -7.921875 L 3.546875 -3.3125 L 8.578125 -4.171875 C 8.921875 -4.222656 9.171875 -4.195312 9.328125 -4.09375 C 9.484375 -3.988281 9.582031 -3.8125 9.625 -3.5625 C 9.738281 -2.851562 9.753906 -2.351562 9.671875 -2.0625 C 9.585938 -1.78125 9.351562 -1.601562 8.96875 -1.53125 L 1.328125 -0.234375 L 0.90625 -0.53125 L -1.828125 -16.484375 L 5.875 -17.796875 C 6.507812 -17.878906 6.863281 -17.695312 6.9375 -17.25 C 6.976562 -16.863281 7.003906 -16.554688 7.015625 -16.328125 C 7.035156 -16.097656 6.988281 -15.859375 6.875 -15.609375 C 6.757812 -15.367188 6.554688 -15.222656 6.265625 -15.171875 L 1.421875 -14.34375 L 2.3125 -10.5625 Z M 6.5 -11.28125 "/></g></g></g><g fill="#000000" fill-opacity="1"><g transform="translate(259.417984, 236.643898)"><g><path d="M 0.875 -0.703125 L -1.828125 -16.484375 C -0.378906 -16.953125 0.890625 -17.28125 1.984375 -17.46875 C 3.984375 -17.8125 5.429688 -17.675781 6.328125 -17.0625 C 7.222656 -16.445312 7.820312 -15.269531 8.125 -13.53125 C 8.539062 -11.09375 8.128906 -9.363281 6.890625 -8.34375 L 10.703125 -2.609375 C 10.921875 -2.273438 11.035156 -2.050781 11.046875 -1.9375 C 11.066406 -1.832031 11.066406 -1.765625 11.046875 -1.734375 C 11.015625 -1.585938 10.773438 -1.476562 10.328125 -1.40625 C 8.929688 -1.164062 8.066406 -1.304688 7.734375 -1.828125 L 4.265625 -7.109375 C 3.921875 -7.015625 3.390625 -6.910156 2.671875 -6.796875 L 3.625 -1.203125 C 3.695312 -0.796875 3.695312 -0.53125 3.625 -0.40625 C 3.5625 -0.289062 3.316406 -0.195312 2.890625 -0.125 C 1.648438 0.0820312 0.976562 -0.109375 0.875 -0.703125 Z M 2.484375 -9.8125 C 3.648438 -10.007812 4.40625 -10.304688 4.75 -10.703125 C 5.09375 -11.109375 5.171875 -11.878906 4.984375 -13.015625 C 4.859375 -13.710938 4.648438 -14.242188 4.359375 -14.609375 C 4.066406 -14.972656 3.78125 -15.132812 3.5 -15.09375 C 2.476562 -14.914062 1.859375 -14.785156 1.640625 -14.703125 C 1.429688 -14.617188 1.347656 -14.453125 1.390625 -14.203125 L 2.09375 -10.09375 C 2.125 -9.90625 2.175781 -9.804688 2.25 -9.796875 C 2.320312 -9.796875 2.398438 -9.800781 2.484375 -9.8125 Z M 2.484375 -9.8125 "/></g></g></g><g fill="#000000" fill-opacity="1"><g transform="translate(270.95221, 234.669953)"><g><path d="M 3.609375 -17.78125 C 4.609375 -17.945312 5.1875 -17.816406 5.34375 -17.390625 L 7.96875 -10.984375 L 10.984375 -2.375 C 11.035156 -2.238281 11.070312 -2.109375 11.09375 -1.984375 C 11.113281 -1.859375 11.09375 -1.742188 11.03125 -1.640625 C 10.976562 -1.546875 10.738281 -1.460938 10.3125 -1.390625 C 9.03125 -1.171875 8.296875 -1.335938 8.109375 -1.890625 L 6.59375 -6.203125 L 3.5625 -5.6875 L 3.65625 -1.109375 C 3.664062 -0.785156 3.644531 -0.566406 3.59375 -0.453125 C 3.539062 -0.335938 3.457031 -0.257812 3.34375 -0.21875 C 3.238281 -0.1875 3.050781 -0.148438 2.78125 -0.109375 L 2.1875 0 C 1.6875 0.0820312 1.363281 0.101562 1.21875 0.0625 C 0.875 0 0.671875 -0.0976562 0.609375 -0.234375 C 0.566406 -0.304688 0.539062 -0.375 0.53125 -0.4375 C 0.519531 -0.5 0.515625 -1.476562 0.515625 -3.375 C 0.515625 -5.269531 0.507812 -7.535156 0.5 -10.171875 C 0.5 -12.804688 0.5 -14.535156 0.5 -15.359375 C 0.5 -16.179688 0.503906 -16.640625 0.515625 -16.734375 C 0.503906 -17.078125 1.535156 -17.425781 3.609375 -17.78125 Z M 3.453125 -14.828125 L 3.53125 -8.390625 L 5.671875 -8.75 Z M 3.453125 -14.828125 "/></g></g></g><g fill="#000000" fill-opacity="1"><g transform="translate(282.638198, 232.670036)"><g><path d="M 0.78125 -1.765625 C 0.40625 -2.078125 0.195312 -2.328125 0.15625 -2.515625 C 0.125 -2.710938 0.25 -3.015625 0.53125 -3.421875 C 0.820312 -3.835938 1.015625 -4.0625 1.109375 -4.09375 C 1.210938 -4.132812 1.316406 -4.160156 1.421875 -4.171875 C 1.523438 -4.191406 1.707031 -4.164062 1.96875 -4.09375 C 3.175781 -3.4375 4.179688 -3.175781 4.984375 -3.3125 C 5.796875 -3.445312 6.289062 -3.722656 6.46875 -4.140625 C 6.65625 -4.554688 6.695312 -5.066406 6.59375 -5.671875 C 6.488281 -6.273438 6.1875 -6.726562 5.6875 -7.03125 C 5.1875 -7.34375 4.394531 -7.679688 3.3125 -8.046875 C 2.238281 -8.410156 1.257812 -8.953125 0.375 -9.671875 C -0.507812 -10.398438 -1.03125 -11.222656 -1.1875 -12.140625 C -1.46875 -13.753906 -1.242188 -15.003906 -0.515625 -15.890625 C 0.203125 -16.773438 1.378906 -17.359375 3.015625 -17.640625 C 4.003906 -17.804688 5.015625 -17.738281 6.046875 -17.4375 C 6.597656 -17.320312 6.875 -17.15625 6.875 -16.9375 C 6.875 -16.851562 6.882812 -16.722656 6.90625 -16.546875 C 6.757812 -15.710938 6.625 -15.222656 6.5 -15.078125 C 6.46875 -15.046875 6.375 -15.015625 6.21875 -14.984375 C 6.0625 -14.960938 5.640625 -15.015625 4.953125 -15.140625 C 4.265625 -15.273438 3.691406 -15.300781 3.234375 -15.21875 C 2.773438 -15.144531 2.421875 -14.921875 2.171875 -14.546875 C 1.921875 -14.179688 1.84375 -13.707031 1.9375 -13.125 C 2.039062 -12.539062 2.394531 -12.0625 3 -11.6875 C 3.601562 -11.3125 4.488281 -10.960938 5.65625 -10.640625 C 6.90625 -10.234375 7.867188 -9.757812 8.546875 -9.21875 C 9.222656 -8.6875 9.648438 -7.882812 9.828125 -6.8125 C 10.441406 -3.25 9.242188 -1.210938 6.234375 -0.703125 C 3.992188 -0.316406 2.175781 -0.671875 0.78125 -1.765625 Z M 0.78125 -1.765625 "/></g></g></g><g clip-path="url(#id7)"><g clip-path="url(#id8)"><g clip-path="url(#id9)"><g clip-path="url(#id10)"><g clip-path="url(#id11)"><path fill="#000000" d="M 212.117188 127.480469 C 211.296875 125.882812 209.011719 125.195312 209.191406 123.125 C 209.277344 122.148438 209.851562 121.277344 209.917969 120.296875 C 209.996094 119.164062 209.140625 118.582031 208.195312 118.175781 C 206.511719 117.453125 205.113281 117.140625 204.488281 115.222656 C 204.140625 114.140625 204.175781 112.03125 202.972656 111.496094 C 201.324219 110.765625 199.3125 111.570312 197.636719 110.757812 C 196.324219 110.117188 196.398438 108.832031 195.539062 107.855469 C 193.996094 106.085938 191.085938 107.566406 189.234375 107.703125 C 187.085938 107.859375 185.59375 107.003906 184.183594 105.484375 C 182.507812 103.679688 180.699219 105.847656 179.136719 106.722656 C 177.355469 107.726562 175.167969 108.089844 173.136719 107.972656 C 171.574219 107.882812 170.046875 106.902344 168.472656 107.175781 C 167.34375 107.375 167.261719 108.535156 166.808594 109.421875 C 166.386719 110.246094 165.839844 111.035156 165.105469 111.613281 C 164.292969 112.25 163.292969 112.566406 162.265625 112.496094 C 161.316406 112.433594 160.453125 112.203125 159.527344 112.5625 C 157.476562 113.359375 158.105469 116.078125 157.164062 117.707031 C 156.222656 119.332031 154.71875 119.800781 153.089844 120.449219 C 152.191406 120.808594 151.316406 121.488281 151.183594 122.507812 C 151.054688 123.519531 151.722656 124.453125 151.714844 125.472656 C 151.695312 127.234375 150.25 127.910156 149.21875 129.074219 C 148.089844 130.347656 149.300781 132.261719 149.628906 133.671875 C 150.070312 135.5625 149.839844 137.105469 149.066406 138.847656 C 148.605469 139.890625 148.980469 140.667969 149.402344 141.632812 C 149.425781 141.683594 149.488281 141.753906 149.546875 141.8125 C 149.875 141.757812 150.203125 141.691406 150.53125 141.628906 L 153.300781 141.117188 C 152.5 135.304688 153.777344 129.414062 156.84375 124.390625 C 162.933594 114.40625 175.160156 109.171875 186.628906 110.878906 C 197.367188 112.476562 206.6875 120.085938 209.179688 130.769531 L 209.992188 130.621094 C 210.613281 130.503906 211.695312 130.515625 212.257812 130.199219 C 213.070312 129.742188 212.4375 128.105469 212.117188 127.480469 Z M 180.296875 136.117188 L 207.269531 131.125 C 206.015625 125.8125 202.910156 121.121094 198.535156 117.832031 C 189.839844 111.292969 177.640625 110.882812 168.226562 116.136719 C 159.449219 121.03125 153.859375 130.703125 155.207031 140.757812 C 163.542969 139.085938 171.9375 137.667969 180.296875 136.117188 Z M 149.449219 141.824219 C 149.429688 141.820312 149.429688 141.824219 149.449219 141.824219 Z M 214.550781 129.265625 C 214.574219 130.585938 214 131.765625 212.648438 132.101562 C 211.929688 132.28125 211.175781 132.375 210.445312 132.511719 L 178.527344 138.421875 L 154.582031 142.855469 L 150.65625 143.582031 C 150.085938 143.6875 149.460938 143.894531 148.898438 143.6875 C 148.195312 143.425781 147.710938 142.671875 147.410156 142.03125 C 146.992188 141.140625 146.78125 140.097656 146.941406 139.121094 C 147.082031 138.273438 147.628906 137.582031 147.832031 136.75 C 148.363281 134.582031 147.007812 132.605469 146.808594 130.5 C 146.65625 128.875 147.636719 127.824219 148.789062 126.816406 C 149.652344 126.0625 149.933594 125.660156 149.574219 124.488281 C 149.285156 123.542969 149.101562 122.640625 149.386719 121.664062 C 149.984375 119.628906 151.722656 118.960938 153.507812 118.273438 C 154.375 117.941406 155.152344 117.414062 155.585938 116.566406 C 156.109375 115.535156 155.929688 114.347656 156.332031 113.28125 C 157.011719 111.488281 158.683594 110.5 160.550781 110.417969 C 161.761719 110.359375 162.914062 110.886719 163.957031 110.039062 C 164.839844 109.324219 165.199219 108.265625 165.613281 107.257812 C 166.367188 105.429688 168.238281 104.992188 170.054688 105.296875 C 170.902344 105.4375 171.679688 105.816406 172.519531 105.957031 C 173.464844 106.117188 174.457031 106.078125 175.398438 105.929688 C 176.703125 105.730469 177.886719 105.292969 178.957031 104.527344 C 179.835938 103.898438 180.683594 103.253906 181.738281 102.957031 C 182.597656 102.722656 183.457031 102.746094 184.269531 103.128906 C 185.171875 103.550781 185.613281 104.351562 186.339844 104.976562 C 188.304688 106.664062 190.769531 105.140625 192.980469 105.109375 C 194.9375 105.085938 196.773438 105.789062 197.648438 107.625 C 197.863281 108.078125 197.976562 108.691406 198.417969 108.984375 C 199.167969 109.480469 200.460938 109.269531 201.304688 109.304688 C 202.804688 109.363281 204.425781 109.609375 205.246094 111.019531 C 206.003906 112.328125 205.707031 114.644531 206.941406 115.582031 C 207.78125 116.226562 209.027344 116.328125 209.953125 116.894531 C 210.75 117.386719 211.40625 118.082031 211.695312 118.988281 C 212.023438 120.015625 211.800781 121.050781 211.496094 122.054688 C 211.117188 123.277344 210.957031 123.539062 212.035156 124.4375 C 213.480469 125.648438 214.519531 127.328125 214.550781 129.265625 Z M 198.652344 121.800781 C 198.257812 121.371094 197.84375 120.964844 197.414062 120.578125 C 197.035156 120.238281 196.457031 120.085938 196.042969 120.476562 C 195.699219 120.800781 195.539062 121.484375 195.945312 121.847656 C 196.375 122.234375 196.785156 122.640625 197.179688 123.066406 C 197.527344 123.441406 198.160156 123.535156 198.550781 123.167969 C 198.921875 122.820312 199.023438 122.199219 198.652344 121.800781 Z M 194.914062 118.644531 C 195.972656 119.316406 194.867188 120.914062 193.8125 120.246094 C 189.5625 117.546875 184.511719 116.6875 179.578125 117.554688 C 178.347656 117.769531 177.992188 115.859375 179.226562 115.644531 C 184.667969 114.6875 190.234375 115.671875 194.914062 118.644531 " fill-opacity="1" fill-rule="nonzero"/></g></g></g></g></g></svg>